<svg width="188" height="49" viewBox="0 0 188 49" fill="none" xmlns="http://www.w3.org/2000/svg">
<path fill-rule="evenodd" clip-rule="evenodd" d="M69.7445 25.0664H57.6889V30.4904H69.0184C71.8257 30.4904 72.7778 30.3357 72.7778 27.7341C72.7778 25.794 72.1766 25.0664 69.7445 25.0664ZM75.2094 38.8461C72.4775 38.8461 72.5518 37.3464 72.5518 35.3183V34.6569C72.5518 32.7167 72.3521 32.0114 69.9705 32.0114H57.6889V38.8461H55.7331V23.5454H70.597C73.956 23.5454 74.7331 25.5735 74.7331 27.5142C74.7331 29.7623 73.8563 31.129 72.126 31.262V31.3283C73.7052 31.4385 74.5071 32.1656 74.5071 34.2382V36.2006C74.5071 36.7958 74.6082 37.3242 75.6853 37.3242H76.062V38.8461H75.2094Z" fill="white"/>
<path fill-rule="evenodd" clip-rule="evenodd" d="M77.3407 38.8461V23.5454H95.2121V25.0886H79.2955V30.2917H94.5603V31.8127H79.2955V37.3242H95.2121V38.8461H77.3407Z" fill="white"/>
<path fill-rule="evenodd" clip-rule="evenodd" d="M114.085 38.8234L100.401 25.0886H99.3227V38.8461H97.3674V23.5454H101.328L114.738 37.0157V23.5454H116.718V38.8461L114.085 38.8234Z" fill="white"/>
<path fill-rule="evenodd" clip-rule="evenodd" d="M137.471 28.5717C137.471 25.5955 136.72 24.9564 133.787 24.9564H124.588C121.655 24.9564 120.903 25.5955 120.903 28.5717V34.0175C120.903 37.0599 122.031 37.4341 124.588 37.4341H133.787C136.343 37.4341 137.471 37.0599 137.471 34.0175V28.5717ZM133.787 38.9773H124.588C120.403 38.9773 118.923 37.6328 118.923 34.0175V28.5717C118.923 24.7359 120.252 23.4354 124.588 23.4354H133.787C138.124 23.4354 139.452 24.7359 139.452 28.5717V34.0175C139.452 37.6328 137.973 38.9773 133.787 38.9773Z" fill="white"/>
<path fill-rule="evenodd" clip-rule="evenodd" d="M165.32 38.8461V25.0886H164.342L155.093 38.8234H153.764L144.691 25.0886H143.738V38.8461H141.783V23.5454H145.97L154.492 36.3983L163.239 23.5454H167.275V38.8461H165.32Z" fill="white"/>
<mask id="mask0_0_41" style="mask-type:alpha" maskUnits="userSpaceOnUse" x="169" y="23" width="19" height="16">
<path fill-rule="evenodd" clip-rule="evenodd" d="M169.646 23.4844H187.517V38.7851H169.646V23.4844Z" fill="white"/>
</mask>
<g mask="url(#mask0_0_41)">
<path fill-rule="evenodd" clip-rule="evenodd" d="M169.646 38.7851V23.4844H187.517V25.0276H171.6V30.2312H186.865V31.7516H171.6V37.2636H187.517V38.7851H169.646Z" fill="white"/>
</g>
<path fill-rule="evenodd" clip-rule="evenodd" d="M56.8489 13.5743V15.7385H57.1042L59.2896 13.5743H60.2731L57.8607 15.8108C58.9205 15.9195 59.327 16.4115 59.6486 17.0698C59.8949 17.5694 60.0744 18.0179 60.3489 18.4523H59.4691C59.2325 18.1196 59.0621 17.6852 58.8826 17.3014C58.5893 16.6577 58.1919 16.2158 57.1138 16.2158H56.8489V18.4523H56.0257V13.5743H56.8489Z" fill="white"/>
<path fill-rule="evenodd" clip-rule="evenodd" d="M73.6785 16.0352C73.6785 17.0844 74.4162 18.0178 75.7218 18.0178C77.0273 18.0178 77.7651 17.0991 77.7651 15.9917C77.7651 15.0148 77.1027 14.0015 75.7314 14.0015C74.3596 14.0015 73.6785 14.9713 73.6785 16.0352ZM78.6353 15.9629C78.6353 17.6346 77.3014 18.5316 75.6742 18.5316C73.9813 18.5316 72.8083 17.5258 72.8083 16.0494C72.8083 14.5006 74.0572 13.4878 75.7597 13.4878C77.5097 13.4878 78.6353 14.5082 78.6353 15.9629Z" fill="white"/>
<path fill-rule="evenodd" clip-rule="evenodd" d="M97.1108 16.31C97.0638 15.6299 97.0072 14.8047 97.0072 14.204H96.9879C96.7609 14.7688 96.5056 15.3836 96.184 16.0567L95.0584 18.4236H94.4339L93.3933 16.1001C93.0905 15.4054 92.8447 14.7829 92.6652 14.204H92.6465C92.6273 14.8123 92.5803 15.6228 92.5231 16.3611L92.3527 18.4524H91.568L92.0124 13.5745H93.0626L94.1503 15.9338C94.4152 16.5345 94.6231 17.07 94.7935 17.5766H94.8122C94.9826 17.0846 95.2096 16.5492 95.4933 15.9338L96.6284 13.5745H97.6786L98.0756 18.4524H97.262L97.1108 16.31Z" fill="white"/>
<path fill-rule="evenodd" clip-rule="evenodd" d="M115.993 13.5743V18.4523H115.161V14.1027H112.2V18.4523H111.368V13.5743H115.993Z" fill="white"/>
<path fill-rule="evenodd" clip-rule="evenodd" d="M132.587 16.426L131.953 15.0219C131.811 14.7033 131.717 14.4141 131.622 14.1314H131.603C131.509 14.4141 131.414 14.718 131.281 15.0148L130.657 16.426H132.587ZM130.487 16.918L129.825 18.4521H128.973L131.149 13.5742H132.133L134.308 18.4521H133.429L132.748 16.918H130.487Z" fill="white"/>
<path fill-rule="evenodd" clip-rule="evenodd" d="M148.102 13.5743V15.6151H151.186V13.5743H152.018V18.4523H151.186V16.1653H148.102V18.4523H147.27V13.5743H148.102Z" fill="white"/>
<path fill-rule="evenodd" clip-rule="evenodd" d="M166.256 13.5743V15.6298C166.256 16.3968 166.237 17.041 166.181 17.6923L166.209 17.6994C166.521 17.1932 166.918 16.6648 167.382 16.0859L169.444 13.5743H170.267V18.4523H169.491V16.3751C169.491 15.5863 169.501 15.0073 169.567 14.3925L169.539 14.3849C169.227 14.9204 168.791 15.4852 168.356 16.0206L166.36 18.4523H165.48V13.5743H166.256Z" fill="white"/>
<path fill-rule="evenodd" clip-rule="evenodd" d="M186.614 14.0883C186.472 14.059 186.207 14.0302 185.829 14.0302C185.025 14.0302 184.334 14.2618 184.334 14.9348C184.334 15.5208 185.006 15.8611 185.914 15.8611C186.188 15.8611 186.453 15.8611 186.614 15.847V14.0883ZM183.152 18.452C183.256 18.3216 183.341 18.1699 183.417 18.0106C183.691 17.4534 183.852 16.7733 184.372 16.3749C184.524 16.2591 184.713 16.1726 184.912 16.1215V16.1074C184.117 16.0057 183.502 15.5719 183.502 14.906C183.502 14.4787 183.729 14.1389 184.088 13.9144C184.486 13.6682 185.11 13.5382 185.914 13.5382C186.453 13.5382 187.021 13.5741 187.437 13.6393V18.452H186.614V16.339H185.999C185.611 16.339 185.318 16.4042 185.091 16.5776C184.647 16.9179 184.476 17.6344 184.249 18.0976C184.183 18.2205 184.126 18.3216 184.041 18.452H183.152Z" fill="white"/>
<mask id="mask1_0_41" style="mask-type:alpha" maskUnits="userSpaceOnUse" x="10" y="10" width="39" height="39">
<path fill-rule="evenodd" clip-rule="evenodd" d="M10.1432 10.4152H48.032V48.0727H10.1432V10.4152Z" fill="white"/>
</mask>
<g mask="url(#mask1_0_41)">
<path fill-rule="evenodd" clip-rule="evenodd" d="M48.032 42.4122V48.0728H15.7027C12.6315 48.0728 10.1432 45.5371 10.1432 42.4122V16.0743C10.1432 12.9494 12.6315 10.4152 15.7027 10.4152H42.4724C45.5442 10.4152 48.032 12.9494 48.032 16.0743V42.4122Z" fill="#575756"/>
</g>
<path fill-rule="evenodd" clip-rule="evenodd" d="M37.8878 32.1942C37.8878 35.3363 35.3985 37.8883 32.3282 37.8883H5.56054C2.48928 37.8883 0 35.3363 0 32.1942V5.69403C0.000505642 0.426256 -0.00101128 3.96474 0.00252821 0H32.3282C35.3985 0 37.8878 2.54591 37.8878 5.69403V32.1942Z" fill="#C5C5C5"/>
<path fill-rule="evenodd" clip-rule="evenodd" d="M42.8778 37.2946C42.8778 40.4215 40.4011 42.9598 37.3471 42.9598H10.7195C7.66638 42.9598 5.19177 40.4215 5.19177 37.2946V10.9329C5.19177 7.80808 7.66638 5.2738 10.7195 5.2738H37.3471C40.4011 5.2738 42.8778 7.80808 42.8778 10.9329V37.2946Z" fill="#E21119"/>
<path fill-rule="evenodd" clip-rule="evenodd" d="M33.0995 26.5497C34.7039 25.6021 36.2775 24.1802 36.2775 20.8309C36.2775 14.6059 33.0368 13.1213 28.5047 13.1213H11.9192V35.05H16.1655H17.144H20.557V19.9283H17.5722V16.7503H20.557H21.1315H27.5486V24.6495H23.6849V27.7551H27.5486V35.05H31.4309H31.9406H36.6557V30.4992C36.6557 28.1293 35.2707 27.2773 33.0995 26.5497Z" fill="#FEFEFE"/>
</svg>
