<svg width="421" height="245" viewBox="0 0 421 245" fill="none" xmlns="http://www.w3.org/2000/svg">
<path fill-rule="evenodd" clip-rule="evenodd" d="M5.78409 96.527H22.4862C22.4862 52.5511 58.1084 16.7751 101.891 16.7751C145.678 16.7751 181.299 52.5511 181.299 96.527C181.299 163.931 108.628 186.309 55.5662 202.65C22.1062 212.954 0 219.763 0 236.611V245H155.489V228.224H31.577C39.4026 225.172 49.267 222.135 60.4624 218.688C115.232 201.822 198 176.332 198 96.527C198 43.3021 154.886 0 101.891 0C48.8987 0 5.78409 43.3021 5.78409 96.527ZM171 231.62C171 236.141 171.244 240.602 171.708 245H188.629C188.092 240.615 187.809 236.15 187.809 231.62C187.809 171.664 236.376 122.883 296.068 122.883C350.02 122.883 394.875 162.728 403.008 214.656H420C411.751 153.302 359.415 106 296.068 106C226.995 106 171 162.242 171 231.62ZM405 227V231.175H410.187V245H415.58V231.175H421V227H405ZM383 227V245H398V241.057H388.472V237.556H397.232V234.237H388.472V230.942H397.824V227H383ZM357.1 227V239.76C357.1 241.213 356.362 241.681 355.254 241.681H355V245H358.464C361.103 245 362.353 242.848 362.353 240.488V231.175H367.748V245H373V227H357.1Z" fill="white"/>
</svg>
