<svg width="24" height="24" viewBox="0 0 24 24" fill="none" xmlns="http://www.w3.org/2000/svg">
<path fill-rule="evenodd" clip-rule="evenodd" d="M11.8568 15.9432C9.67478 15.9432 7.90878 14.1762 7.90878 11.9952C7.90878 9.81421 9.67578 8.04721 11.8568 8.04721C14.0378 8.04721 15.8048 9.81421 15.8048 11.9952C15.8058 14.1762 14.0388 15.9432 11.8568 15.9432ZM11.8568 5.91321C8.49578 5.91321 5.77478 8.63721 5.77478 11.9952C5.77478 15.3562 8.49878 18.0772 11.8568 18.0772C15.2178 18.0772 17.9388 15.3532 17.9388 11.9952C17.9388 8.63421 15.2148 5.91321 11.8568 5.91321Z" fill="white"/>
<path fill-rule="evenodd" clip-rule="evenodd" d="M20.1921 20.3435C18.6981 21.8375 16.6241 21.7045 11.8281 21.7045C6.88914 21.7045 4.90914 21.7775 3.46414 20.3285C1.80014 18.6725 2.10114 16.0125 2.10114 11.9795C2.10114 6.52249 1.54114 2.59249 7.01814 2.31149C8.27614 2.26749 8.64714 2.25249 11.8141 2.25249L11.8591 2.28149C17.1221 2.28149 21.2521 1.73049 21.5001 7.20649C21.5561 8.45649 21.5691 8.83149 21.5691 11.9945C21.5681 16.8755 21.6611 18.8675 20.1921 20.3435ZM16.7401 0.221487C14.5591 0.119487 9.15714 0.124487 6.97414 0.221487C5.05614 0.311487 3.36414 0.774487 2.00014 2.13849C-0.279859 4.41849 0.0121412 7.49049 0.0121412 11.9955C0.0121412 16.6055 -0.244859 19.6065 2.00014 21.8515C4.28914 24.1395 7.40514 23.8405 11.8571 23.8405C16.4241 23.8405 18.0001 23.8425 19.6151 23.2175C21.8111 22.3655 23.4681 20.4025 23.6301 16.8775C23.7331 14.6955 23.7271 9.29449 23.6301 7.11149C23.4351 2.95049 21.2011 0.427487 16.7401 0.221487Z" fill="white"/>
<path fill-rule="evenodd" clip-rule="evenodd" d="M18.1802 4.25153C18.9652 4.25153 19.6012 4.88753 19.6012 5.67253C19.6012 6.45753 18.9652 7.09453 18.1802 7.09453C17.3952 7.09453 16.7592 6.45753 16.7592 5.67253C16.7592 4.88753 17.3952 4.25153 18.1802 4.25153Z" fill="white"/>
</svg>
