<svg width="188" height="49" viewBox="0 0 188 49" fill="none" xmlns="http://www.w3.org/2000/svg">
<path fill-rule="evenodd" clip-rule="evenodd" d="M69.7438 25.0664H57.6882V30.4904H69.0177C71.825 30.4904 72.7771 30.3357 72.7771 27.7341C72.7771 25.794 72.1759 25.0664 69.7438 25.0664ZM75.2087 38.8461C72.4768 38.8461 72.5511 37.3464 72.5511 35.3183V34.6569C72.5511 32.7167 72.3514 32.0114 69.9698 32.0114H57.6882V38.8461H55.7324V23.5454H70.5963C73.9553 23.5454 74.7324 25.5735 74.7324 27.5142C74.7324 29.7623 73.8556 31.129 72.1253 31.262V31.3283C73.7045 31.4385 74.5064 32.1656 74.5064 34.2382V36.2006C74.5064 36.7958 74.6075 37.3242 75.6845 37.3242H76.0613V38.8461H75.2087Z" fill="black"/>
<path fill-rule="evenodd" clip-rule="evenodd" d="M77.3398 38.8461V23.5454H95.2113V25.0886H79.2947V30.2917H94.5595V31.8127H79.2947V37.3242H95.2113V38.8461H77.3398Z" fill="black"/>
<path fill-rule="evenodd" clip-rule="evenodd" d="M114.085 38.8234L100.401 25.0886H99.3225V38.8461H97.3672V23.5454H101.328L114.738 37.0157V23.5454H116.718V38.8461L114.085 38.8234Z" fill="black"/>
<path fill-rule="evenodd" clip-rule="evenodd" d="M137.472 28.5717C137.472 25.5955 136.72 24.9564 133.787 24.9564H124.588C121.656 24.9564 120.903 25.5955 120.903 28.5717V34.0175C120.903 37.0599 122.032 37.4341 124.588 37.4341H133.787C136.344 37.4341 137.472 37.0599 137.472 34.0175V28.5717ZM133.787 38.9773H124.588C120.403 38.9773 118.924 37.6328 118.924 34.0175V28.5717C118.924 24.7359 120.253 23.4354 124.588 23.4354H133.787C138.124 23.4354 139.452 24.7359 139.452 28.5717V34.0175C139.452 37.6328 137.974 38.9773 133.787 38.9773Z" fill="black"/>
<path fill-rule="evenodd" clip-rule="evenodd" d="M165.32 38.8461V25.0886H164.342L155.093 38.8234H153.764L144.691 25.0886H143.739V38.8461H141.783V23.5454H145.97L154.493 36.3983L163.239 23.5454H167.275V38.8461H165.32Z" fill="black"/>
<mask id="mask0_0_3702" style="mask-type:alpha" maskUnits="userSpaceOnUse" x="169" y="23" width="19" height="16">
<path fill-rule="evenodd" clip-rule="evenodd" d="M169.646 23.4844H187.518V38.7851H169.646V23.4844Z" fill="white"/>
</mask>
<g mask="url(#mask0_0_3702)">
<path fill-rule="evenodd" clip-rule="evenodd" d="M169.646 38.7851V23.4844H187.518V25.0276H171.601V30.2312H186.866V31.7516H171.601V37.2636H187.518V38.7851H169.646Z" fill="black"/>
</g>
<path fill-rule="evenodd" clip-rule="evenodd" d="M56.8486 13.5743V15.7385H57.1039L59.2893 13.5743H60.2728L57.8604 15.8108C58.9202 15.9195 59.3267 16.4115 59.6483 17.0698C59.8946 17.5694 60.0741 18.0179 60.3486 18.4523H59.4688C59.2322 18.1196 59.0618 17.6852 58.8823 17.3014C58.589 16.6577 58.1916 16.2158 57.1135 16.2158H56.8486V18.4523H56.0254V13.5743H56.8486Z" fill="black"/>
<path fill-rule="evenodd" clip-rule="evenodd" d="M73.6788 16.0352C73.6788 17.0844 74.4165 18.0178 75.7221 18.0178C77.0277 18.0178 77.7654 17.0991 77.7654 15.9917C77.7654 15.0148 77.103 14.0015 75.7317 14.0015C74.3599 14.0015 73.6788 14.9713 73.6788 16.0352ZM78.6356 15.9629C78.6356 17.6346 77.3017 18.5316 75.6746 18.5316C73.9817 18.5316 72.8086 17.5258 72.8086 16.0494C72.8086 14.5006 74.0575 13.4878 75.76 13.4878C77.5101 13.4878 78.6356 14.5082 78.6356 15.9629Z" fill="black"/>
<path fill-rule="evenodd" clip-rule="evenodd" d="M97.1112 16.31C97.0642 15.6299 97.0076 14.8047 97.0076 14.204H96.9883C96.7613 14.7688 96.506 15.3836 96.1844 16.0567L95.0588 18.4236H94.4343L93.3937 16.1001C93.0908 15.4054 92.8451 14.7829 92.6656 14.204H92.6469C92.6277 14.8123 92.5807 15.6228 92.5235 16.3611L92.3531 18.4524H91.5684L92.0128 13.5745H93.063L94.1507 15.9338C94.4156 16.5345 94.6234 17.07 94.7938 17.5766H94.8126C94.983 17.0846 95.21 16.5492 95.4937 15.9338L96.6288 13.5745H97.679L98.076 18.4524H97.2624L97.1112 16.31Z" fill="black"/>
<path fill-rule="evenodd" clip-rule="evenodd" d="M115.993 13.5743V18.4523H115.161V14.1027H112.199V18.4523H111.367V13.5743H115.993Z" fill="black"/>
<path fill-rule="evenodd" clip-rule="evenodd" d="M132.586 16.426L131.952 15.0219C131.81 14.7033 131.716 14.4141 131.621 14.1314H131.603C131.508 14.4141 131.413 14.718 131.28 15.0148L130.656 16.426H132.586ZM130.486 16.918L129.824 18.4521H128.973L131.148 13.5742H132.132L134.308 18.4521H133.428L132.747 16.918H130.486Z" fill="black"/>
<path fill-rule="evenodd" clip-rule="evenodd" d="M148.102 13.5743V15.6151H151.186V13.5743H152.018V18.4523H151.186V16.1653H148.102V18.4523H147.27V13.5743H148.102Z" fill="black"/>
<path fill-rule="evenodd" clip-rule="evenodd" d="M166.256 13.5743V15.6298C166.256 16.3968 166.237 17.041 166.181 17.6923L166.209 17.6994C166.521 17.1932 166.919 16.6648 167.382 16.0859L169.444 13.5743H170.267V18.4523H169.491V16.3751C169.491 15.5863 169.501 15.0073 169.567 14.3925L169.539 14.3849C169.227 14.9204 168.791 15.4852 168.356 16.0206L166.36 18.4523H165.48V13.5743H166.256Z" fill="black"/>
<path fill-rule="evenodd" clip-rule="evenodd" d="M186.614 14.0883C186.472 14.059 186.207 14.0302 185.829 14.0302C185.025 14.0302 184.335 14.2618 184.335 14.9348C184.335 15.5208 185.007 15.8611 185.915 15.8611C186.189 15.8611 186.454 15.8611 186.614 15.847V14.0883ZM183.152 18.452C183.257 18.3216 183.341 18.1699 183.417 18.0106C183.691 17.4534 183.852 16.7733 184.372 16.3749C184.524 16.2591 184.713 16.1726 184.912 16.1215V16.1074C184.117 16.0057 183.502 15.5719 183.502 14.906C183.502 14.4787 183.729 14.1389 184.089 13.9144C184.486 13.6682 185.11 13.5382 185.915 13.5382C186.454 13.5382 187.021 13.5741 187.438 13.6393V18.452H186.614V16.339H186C185.612 16.339 185.319 16.4042 185.091 16.5776C184.647 16.9179 184.477 17.6344 184.25 18.0976C184.183 18.2205 184.127 18.3216 184.042 18.452H183.152Z" fill="black"/>
<mask id="mask1_0_3702" style="mask-type:alpha" maskUnits="userSpaceOnUse" x="10" y="10" width="39" height="39">
<path fill-rule="evenodd" clip-rule="evenodd" d="M10.1426 10.4152H48.0313V48.0727H10.1426V10.4152Z" fill="white"/>
</mask>
<g mask="url(#mask1_0_3702)">
<path fill-rule="evenodd" clip-rule="evenodd" d="M48.0313 42.4122V48.0728H15.7021C12.6308 48.0728 10.1426 45.5371 10.1426 42.4122V16.0743C10.1426 12.9494 12.6308 10.4152 15.7021 10.4152H42.4718C45.5436 10.4152 48.0313 12.9494 48.0313 16.0743V42.4122Z" fill="#575756"/>
</g>
<path fill-rule="evenodd" clip-rule="evenodd" d="M37.8878 32.1942C37.8878 35.3363 35.3985 37.8883 32.3282 37.8883H5.56054C2.48928 37.8883 0 35.3363 0 32.1942V5.69403C0.000505642 0.426256 -0.00101128 3.96474 0.00252821 0H32.3282C35.3985 0 37.8878 2.54591 37.8878 5.69403V32.1942Z" fill="#C5C5C5"/>
<path fill-rule="evenodd" clip-rule="evenodd" d="M42.8774 37.2946C42.8774 40.4215 40.4008 42.9598 37.3467 42.9598H10.7191C7.66602 42.9598 5.19141 40.4215 5.19141 37.2946V10.9329C5.19141 7.80808 7.66602 5.2738 10.7191 5.2738H37.3467C40.4008 5.2738 42.8774 7.80808 42.8774 10.9329V37.2946Z" fill="#E21119"/>
<path fill-rule="evenodd" clip-rule="evenodd" d="M33.1003 26.5497C34.7047 25.6021 36.2782 24.1802 36.2782 20.8309C36.2782 14.6059 33.0376 13.1213 28.5055 13.1213H11.9199V35.05H16.1663H17.1447H20.5578V19.9283H17.573V16.7503H20.5578H21.1322H27.5493V24.6495H23.6857V27.7551H27.5493V35.05H31.4316H31.9413H36.6564V30.4992C36.6564 28.1293 35.2715 27.2773 33.1003 26.5497Z" fill="#FEFEFE"/>
</svg>
