<svg width="376" height="376" viewBox="0 0 376 376" fill="none" xmlns="http://www.w3.org/2000/svg">
<path fill-rule="evenodd" clip-rule="evenodd" d="M375.986 319.523C375.986 350.638 351.342 375.896 320.952 375.896H55.9903C25.6103 375.896 0.986328 350.638 0.986328 319.523V57.2076C0.986328 26.1132 25.6103 0.895508 55.9903 0.895508H320.952C351.342 0.895508 375.986 26.1132 375.986 57.2076V319.523Z" fill="#E21119"/>
<path fill-rule="evenodd" clip-rule="evenodd" d="M278.361 212.376C294.296 202.928 309.925 188.751 309.925 155.354C309.925 93.2844 277.738 78.4817 232.724 78.4817H67.9922V297.134H110.168H119.886H153.786V146.354H124.14V114.667H153.786H159.491H223.228V193.429H184.853V224.396H223.228V297.134H261.788H266.85H313.682V251.758C313.682 228.127 299.926 219.631 278.361 212.376Z" fill="#FEFEFE"/>
</svg>
