<svg width="27" height="16" viewBox="0 0 27 16" fill="none" xmlns="http://www.w3.org/2000/svg">
<path id="Fill 15" fill-rule="evenodd" clip-rule="evenodd" d="M22.049 9.13818C21.619 8.59618 21.742 8.35418 22.049 7.86918C22.055 7.86418 25.601 2.96318 25.966 1.30218L25.968 1.30018C26.15 0.695183 25.968 0.250183 25.09 0.250183H22.185C21.446 0.250183 21.105 0.632183 20.922 1.05918C20.922 1.05918 19.443 4.60018 17.35 6.89518C16.675 7.55818 16.363 7.77118 15.994 7.77118C15.812 7.77118 15.53 7.55818 15.53 6.95218V1.30018C15.53 0.574183 15.323 0.250183 14.711 0.250183H10.143C9.679 0.250183 9.403 0.589183 9.403 0.904183C9.403 1.59318 10.449 1.75118 10.558 3.68918V7.89218C10.558 8.81418 10.391 8.98318 10.02 8.98318C9.032 8.98318 6.635 5.42818 5.215 1.35918C4.928 0.570183 4.648 0.251183 3.903 0.251183H0.996C0.167 0.251183 0 0.633183 0 1.06018C0 1.81518 0.988 5.57018 4.592 10.5302C6.995 13.9152 10.378 15.7502 13.456 15.7502C15.306 15.7502 15.532 15.3432 15.532 14.6422C15.532 11.4072 15.365 11.1012 16.292 11.1012C16.721 11.1012 17.461 11.3142 19.188 12.9472C21.162 14.8832 21.487 15.7502 22.591 15.7502H25.497C26.325 15.7502 26.744 15.3432 26.503 14.5392C25.951 12.8482 22.217 9.37118 22.049 9.13818Z"/>
</svg>
