<svg width="228" height="28" viewBox="0 0 228 28" fill="none" xmlns="http://www.w3.org/2000/svg">
<path fill-rule="evenodd" clip-rule="evenodd" d="M21.5332 22.3661L13.543 10.8283L21.163 0.462769H16.7206L10.1804 9.13154H6.87949V0.462769H1.97439L0 4.13389H2.96158V22.3661H6.87949V12.525H10.1804L17.0599 22.3661H21.5332ZM21.5023 9.99533C20.7208 11.2705 20.33 12.7615 20.33 14.4685C20.33 16.1756 20.7105 17.6666 21.4715 18.9418C22.253 20.1963 23.3122 21.1527 24.649 21.8108C25.9652 22.4689 27.374 22.798 28.8754 22.798C30.3973 22.798 31.8061 22.4689 33.1018 21.8108C34.4181 21.1321 35.4567 20.1757 36.2176 18.9418C36.9786 17.6872 37.3591 16.1961 37.3591 14.4685C37.3591 12.7615 36.9786 11.291 36.2176 10.057C35.4567 8.80248 34.4181 7.85642 33.1018 7.21886C31.8473 6.60186 30.4384 6.29337 28.8754 6.29337C27.3535 6.29337 25.9344 6.61215 24.6181 7.24971C23.3019 7.88727 22.2633 8.80248 21.5023 9.99533ZM86.8729 6.78696H90.3589V8.91559C90.8936 8.09293 91.6032 7.46566 92.4875 7.03376C93.3924 6.5813 94.5545 6.35507 95.9735 6.35507C97.4338 6.35507 98.7294 6.68413 99.8606 7.34226C100.951 8.02095 101.794 8.98758 102.39 10.2421C103.007 11.4761 103.316 12.8952 103.316 14.4994C103.316 16.1241 103.007 17.5638 102.39 18.8184C101.794 20.0523 100.951 21.0087 99.8606 21.6874C99.3464 22.037 98.7397 22.2941 98.0405 22.4586C97.3618 22.6437 96.6728 22.7363 95.9735 22.7363C94.7601 22.7363 93.8552 22.6437 93.2588 22.4586C92.0248 22.0884 91.1507 21.4714 90.6365 20.6076V27.8882H86.8729V6.78696ZM43.0971 6.78696H39.3643V22.3661H43.0971V15.7951H49.483V22.3661H53.185V6.78696H49.483V12.7101H43.0971V6.78696ZM54.82 6.78696H69.1651V9.74854H63.859V22.3661H60.0645V9.74854H54.82V6.78696ZM78.1424 18.1397C76.9907 14.3966 75.7156 10.6123 74.317 6.78696H70.3683L76.2914 22.9214C76.1475 23.3327 75.9726 23.672 75.767 23.9394C75.5613 24.2273 75.2631 24.4536 74.8723 24.6181C74.4404 24.8238 73.8749 24.9266 73.1756 24.9266C72.5997 24.9266 72.1164 24.8855 71.7257 24.8032L72.9905 27.7648C73.0522 27.7853 73.4018 27.7956 74.0394 27.7956C75.1705 27.7956 76.0755 27.6105 76.7542 27.2403C77.4534 26.8907 78.0396 26.3663 78.5126 25.667C78.9445 24.9677 79.397 23.9703 79.87 22.6746L85.608 6.78696H81.8444C80.4664 10.6535 79.2324 14.4377 78.1424 18.1397ZM24.1245 14.4377C24.1245 16.1447 24.5359 17.4507 25.3585 18.3556C26.1812 19.24 27.3226 19.6821 28.7828 19.6821C30.2636 19.6821 31.4154 19.24 32.238 18.3556C33.0812 17.4507 33.5029 16.1447 33.5029 14.4377C33.5029 12.7718 33.0915 11.5173 32.2689 10.674C31.4462 9.81024 30.2842 9.37834 28.7828 9.37834C27.3021 9.37834 26.1503 9.81024 25.3277 10.674C24.5256 11.5173 24.1245 12.7718 24.1245 14.4377ZM91.778 18.1705C90.9965 17.245 90.5851 16.011 90.544 14.4685C90.5851 12.9261 90.9965 11.7024 91.778 10.7974C92.5595 9.8925 93.6598 9.44004 95.0789 9.44004C96.498 9.44004 97.588 9.90278 98.349 10.8283C99.1305 11.7332 99.5315 12.9466 99.5521 14.4685C99.5315 16.011 99.1305 17.245 98.349 18.1705C97.588 19.096 96.498 19.5587 95.0789 19.5587C93.6598 19.5587 92.5595 19.096 91.778 18.1705Z" fill="#222222"/>
<path fill-rule="evenodd" clip-rule="evenodd" d="M108.56 3.08497C109.835 1.99495 111.11 1.21342 112.385 0.740393C113.66 0.246798 115.069 0 116.611 0C120.005 0 122.73 1.07974 124.787 3.23922C125.753 4.26755 126.483 5.48097 126.977 6.87949C127.491 8.25744 127.748 9.76908 127.748 11.4144C127.748 13.615 127.306 15.5585 126.422 17.245C125.517 19.0137 124.231 20.3917 122.565 21.3789C120.92 22.3455 118.997 22.8288 116.797 22.8288C115.665 22.8288 114.616 22.7054 113.65 22.4586C112.704 22.2118 111.799 21.821 110.935 21.2863C110.071 20.7516 109.156 20.0009 108.189 19.0343L109.886 17.1524C111.532 18.6744 113.043 19.6307 114.421 20.0215C115.223 20.2477 116.025 20.3608 116.827 20.3608C118.308 20.3608 119.635 20.0215 120.807 19.3428C121.979 18.6641 122.915 17.718 123.614 16.5046C124.314 15.2912 124.704 13.9132 124.787 12.3707H113.866V9.96446H124.756C124.612 8.50424 124.18 7.19827 123.46 6.04655C122.761 4.91539 121.825 4.04131 120.653 3.42432C119.48 2.78676 118.144 2.46798 116.642 2.46798C115.491 2.46798 114.401 2.66336 113.372 3.05412C112.364 3.44489 111.316 4.1133 110.226 5.05935L108.56 3.08497ZM136.495 15.4866H133.811V22.366H131.158V6.78694H133.811V13.3271H136.526L141.647 6.78694H144.485L138.654 14.2834L144.979 22.366H141.955L136.495 15.4866ZM149.491 21.8108C150.705 22.4689 152.113 22.7979 153.718 22.7979C155.198 22.7979 156.463 22.5409 157.512 22.0267C158.582 21.5125 159.568 20.6693 160.474 19.497L158.746 18.0471C158.15 18.7258 157.614 19.2297 157.142 19.5587C156.669 19.8878 156.155 20.1346 155.6 20.2991C155.003 20.4636 154.376 20.5459 153.718 20.5459C152.607 20.5459 151.64 20.2888 150.818 19.7747C149.995 19.2605 149.368 18.5613 148.936 17.6769C148.504 16.8337 148.288 15.8979 148.288 14.8696V14.4994C148.288 13.4299 148.504 12.4324 148.936 11.5069C149.368 10.5815 149.974 9.86163 150.756 9.34747C151.538 8.8333 152.504 8.57622 153.656 8.57622C154.706 8.57622 155.609 8.75104 156.371 9.10067C157.152 9.42973 157.903 10.0159 158.623 10.8591L160.288 9.22407C159.445 8.19574 158.499 7.46563 157.451 7.03374C156.402 6.58127 155.146 6.35504 153.687 6.35504C152.124 6.35504 150.725 6.69439 149.491 7.37308C148.257 8.05178 147.301 9.00812 146.622 10.2421C145.923 11.4555 145.573 12.8746 145.573 14.4994V14.8696C145.573 16.4326 145.913 17.8106 146.591 19.0034C147.27 20.1963 148.237 21.1321 149.491 21.8108ZM169.859 8.94642V22.366H167.206V8.94642H161.746V6.78694H175.32V8.94642H169.859ZM188.408 22.0884C189.497 21.5948 190.588 20.7824 191.678 19.6513L190.105 18.0162C189.24 18.9417 188.388 19.5999 187.543 19.9906C186.721 20.3814 185.775 20.5768 184.706 20.5768C183.575 20.5768 182.607 20.3403 181.807 19.8672C181.004 19.3942 180.376 18.7361 179.924 17.8928C179.513 17.0907 179.256 16.1344 179.153 15.0238H191.554C191.596 14.4068 191.616 14.0263 191.616 13.8824C191.616 11.5378 190.979 9.6971 189.703 8.36028C188.449 7.02345 186.691 6.35504 184.429 6.35504C182.824 6.35504 181.415 6.70467 180.202 7.40393C179.008 8.10319 178.073 9.0801 177.394 10.3347C176.737 11.6098 176.408 13.0289 176.408 14.5919C176.408 16.2372 176.746 17.6769 177.425 18.9109C178.105 20.1449 179.06 21.1012 180.294 21.7799C181.507 22.4586 182.938 22.7979 184.583 22.7979C186.043 22.7979 187.317 22.5614 188.408 22.0884ZM189.086 13.0803C189.025 11.6612 188.572 10.5403 187.729 9.71766C186.906 8.87444 185.795 8.45282 184.398 8.45282C183.019 8.45282 181.867 8.87444 180.942 9.71766C180.016 10.5403 179.451 11.6612 179.245 13.0803H189.086ZM209.75 18.8492C210.367 17.6152 210.676 16.1961 210.676 14.5919V14.4377C210.676 12.8541 210.357 11.4555 209.719 10.2421C209.082 9.02869 208.186 8.07234 207.035 7.37308C205.883 6.71496 204.587 6.38589 203.147 6.38589C200.31 6.38589 198.285 7.43478 197.071 9.53256V6.78694H194.603V27.919H197.256V20.114C198.388 21.8622 200.341 22.7362 203.118 22.7362C204.598 22.7362 205.915 22.3969 207.066 21.7182C208.217 21.0395 209.112 20.0832 209.75 18.8492ZM207.991 14.4377C207.991 13.2859 207.775 12.2679 207.343 11.3835C206.891 10.5198 206.254 9.84106 205.432 9.34747C204.629 8.85387 203.713 8.60707 202.685 8.60707C201.636 8.60707 200.69 8.84359 199.847 9.31662C198.983 9.81021 198.314 10.4889 197.842 11.3527C197.369 12.2165 197.132 13.2448 197.132 14.4377V14.5919C197.132 16.3812 197.637 17.8209 198.645 18.9109C199.651 19.9803 200.988 20.5151 202.655 20.5151C203.683 20.5151 204.609 20.258 205.432 19.7438C206.232 19.2502 206.86 18.5613 207.312 17.6769C207.766 16.772 207.991 15.7436 207.991 14.5919V14.4377ZM216.604 15.4557H224.41V22.366H227.064V6.78694H224.41V13.2962H216.604V6.78694H213.953V22.366H216.604V15.4557Z" fill="#FC7630"/>
</svg>
