<svg width="225" height="28" viewBox="0 0 225 28" fill="none" xmlns="http://www.w3.org/2000/svg">
<path fill-rule="evenodd" clip-rule="evenodd" d="M21.5332 22.3661L13.543 10.8283L21.163 0.462769H16.7206L10.1804 9.13154H6.87949V0.462769H1.97439L0 4.13389H2.96158V22.3661H6.87949V12.525H10.1804L17.0599 22.3661H21.5332ZM21.5023 9.99533C20.7208 11.2705 20.33 12.7615 20.33 14.4685C20.33 16.1756 20.7105 17.6666 21.4715 18.9418C22.253 20.1963 23.3122 21.1527 24.649 21.8108C25.9652 22.4689 27.374 22.798 28.8754 22.798C30.3973 22.798 31.8061 22.4689 33.1018 21.8108C34.4181 21.1321 35.4567 20.1757 36.2176 18.9418C36.9786 17.6872 37.3591 16.1961 37.3591 14.4685C37.3591 12.7615 36.9786 11.291 36.2176 10.057C35.4567 8.80248 34.4181 7.85642 33.1018 7.21886C31.8473 6.60186 30.4384 6.29337 28.8754 6.29337C27.3535 6.29337 25.9344 6.61215 24.6181 7.24971C23.3019 7.88727 22.2633 8.80248 21.5023 9.99533ZM86.8729 6.78696H90.3589V8.91559C90.8936 8.09293 91.6032 7.46566 92.4875 7.03376C93.3924 6.5813 94.5545 6.35507 95.9735 6.35507C97.4338 6.35507 98.7294 6.68413 99.8606 7.34226C100.951 8.02095 101.794 8.98758 102.39 10.2421C103.007 11.4761 103.316 12.8952 103.316 14.4994C103.316 16.1241 103.007 17.5638 102.39 18.8184C101.794 20.0523 100.951 21.0087 99.8606 21.6874C99.3464 22.037 98.7397 22.2941 98.0405 22.4586C97.3618 22.6437 96.6728 22.7363 95.9735 22.7363C94.7601 22.7363 93.8552 22.6437 93.2588 22.4586C92.0248 22.0884 91.1507 21.4714 90.6365 20.6076V27.8882H86.8729V6.78696ZM43.0971 6.78696H39.3643V22.3661H43.0971V15.7951H49.483V22.3661H53.185V6.78696H49.483V12.7101H43.0971V6.78696ZM54.82 6.78696H69.1651V9.74854H63.859V22.3661H60.0645V9.74854H54.82V6.78696ZM78.1424 18.1397C76.9907 14.3966 75.7156 10.6123 74.317 6.78696H70.3683L76.2914 22.9214C76.1475 23.3327 75.9726 23.672 75.767 23.9394C75.5613 24.2273 75.2631 24.4536 74.8723 24.6181C74.4404 24.8238 73.8749 24.9266 73.1756 24.9266C72.5997 24.9266 72.1164 24.8855 71.7257 24.8032L72.9905 27.7648C73.0522 27.7853 73.4018 27.7956 74.0394 27.7956C75.1705 27.7956 76.0755 27.6105 76.7542 27.2403C77.4534 26.8907 78.0396 26.3663 78.5126 25.667C78.9445 24.9677 79.397 23.9703 79.87 22.6746L85.608 6.78696H81.8444C80.4664 10.6535 79.2324 14.4377 78.1424 18.1397ZM24.1245 14.4377C24.1245 16.1447 24.5359 17.4507 25.3585 18.3556C26.1812 19.24 27.3226 19.6821 28.7828 19.6821C30.2636 19.6821 31.4154 19.24 32.238 18.3556C33.0812 17.4507 33.5029 16.1447 33.5029 14.4377C33.5029 12.7718 33.0915 11.5173 32.2689 10.674C31.4462 9.81024 30.2842 9.37834 28.7828 9.37834C27.3021 9.37834 26.1503 9.81024 25.3277 10.674C24.5256 11.5173 24.1245 12.7718 24.1245 14.4377ZM91.778 18.1705C90.9965 17.245 90.5851 16.011 90.544 14.4685C90.5851 12.9261 90.9965 11.7024 91.778 10.7974C92.5595 9.8925 93.6598 9.44004 95.0789 9.44004C96.498 9.44004 97.588 9.90278 98.349 10.8283C99.1305 11.7332 99.5315 12.9466 99.5521 14.4685C99.5315 16.011 99.1305 17.245 98.349 18.1705C97.588 19.096 96.498 19.5587 95.0789 19.5587C93.6598 19.5587 92.5595 19.096 91.778 18.1705Z" fill="#222222"/>
<path fill-rule="evenodd" clip-rule="evenodd" d="M125.156 19.6204C125.876 18.5921 126.236 17.4095 126.236 16.0727C126.236 14.777 125.886 13.687 125.187 12.8026C124.488 11.9183 123.47 11.2704 122.133 10.8591C123.202 10.4272 124.025 9.81021 124.601 9.00812C125.177 8.18546 125.465 7.19827 125.465 6.04655C125.465 4.83312 125.136 3.77395 124.477 2.86902C123.819 1.94353 122.894 1.23399 121.701 0.740393C120.488 0.246798 119.11 0 117.567 0C115.922 0 114.441 0.257081 113.125 0.771243C111.808 1.26484 110.523 2.07721 109.269 3.20837L110.904 5.12105C111.829 4.31896 112.816 3.67112 113.865 3.17752C114.914 2.68393 116.148 2.43713 117.567 2.43713C118.616 2.43713 119.521 2.60166 120.282 2.93072C121.043 3.23922 121.639 3.6814 122.071 4.25726C122.483 4.85369 122.688 5.50153 122.688 6.20079C122.688 7.37308 122.297 8.28829 121.516 8.94642C120.734 9.58398 119.634 9.90276 118.215 9.90276H113.834V12.2165H118.277C119.922 12.2165 121.187 12.5456 122.071 13.2037C122.956 13.8618 123.398 14.7873 123.398 15.9802C123.398 17.3787 122.884 18.4687 121.855 19.2502C120.827 20.0112 119.418 20.3917 117.629 20.3917C116.271 20.3917 115.027 20.1449 113.896 19.6513C112.765 19.1577 111.551 18.3453 110.256 17.2141L108.59 19.1885C109.988 20.4636 111.397 21.3891 112.816 21.965C114.256 22.5409 115.85 22.8288 117.598 22.8288C119.305 22.8288 120.806 22.5511 122.102 21.9959C123.418 21.4406 124.436 20.6487 125.156 19.6204ZM139.771 20.2683V22.3661H142.177V11.7229C142.177 10.0364 141.622 8.72019 140.511 7.77413C139.401 6.82807 137.848 6.35504 135.853 6.35504C133.077 6.35504 130.794 7.43478 129.004 9.59426L130.701 11.1368C131.544 10.2113 132.367 9.55313 133.169 9.16237C133.992 8.75104 134.907 8.54537 135.915 8.54537C137.128 8.54537 138.054 8.8333 138.691 9.40917C139.329 9.96446 139.648 10.7974 139.648 11.908V12.9569L135.575 13.2345C133.272 13.3579 131.565 13.831 130.454 14.6536C129.364 15.4557 128.819 16.6383 128.819 18.2013V18.3556C128.819 19.7747 129.303 20.875 130.269 21.6565C131.256 22.438 132.614 22.8288 134.341 22.8288C135.555 22.8288 136.624 22.6128 137.55 22.181C138.475 21.7285 139.216 21.0909 139.771 20.2683ZM135.761 15.1164C134.156 15.1986 133.025 15.466 132.367 15.9185C131.709 16.3709 131.38 17.0907 131.38 18.0779V18.2322C131.38 19.0343 131.678 19.6513 132.274 20.0832C132.891 20.5151 133.755 20.731 134.866 20.731C135.75 20.731 136.563 20.5562 137.303 20.2066C138.043 19.8569 138.619 19.3736 139.031 18.7566C139.442 18.1191 139.648 17.3992 139.648 16.5972V14.9313L135.761 15.1164ZM148.911 15.4866H151.595L157.056 22.366H160.079L153.754 14.2834L159.585 6.78694H156.748L151.626 13.3271H148.911V6.78694H146.258V22.366H148.911V15.4866ZM175.273 6.78694L169.597 22.7054C169.125 24.0422 168.671 25.0705 168.24 25.7904C167.808 26.5513 167.294 27.0963 166.697 27.4254C166.101 27.7545 165.329 27.919 164.384 27.919H163.212L162.41 25.7287H164.013C164.527 25.7287 164.969 25.6464 165.34 25.4819C165.977 25.1939 166.503 24.4844 166.914 23.3532L160.99 6.78694H163.798L165.68 12.2473C166.378 14.2217 166.831 15.538 167.037 16.1961L168.177 19.8364C168.569 18.6024 168.897 17.6049 169.165 16.8439L169.443 16.0727L170.708 12.2473L172.59 6.78694H175.273ZM190.41 6.78694H177.484V22.366H180.137V8.94642H187.756V22.366H190.41V6.78694ZM199.909 15.4866H197.226V22.366H194.573V6.78694H197.226V13.3271H199.94L205.062 6.78694H207.9L202.069 14.2834L208.393 22.366H205.37L199.909 15.4866ZM224.514 22.366V6.78694H221.646L216.77 14.0366C215.27 16.2784 214.108 18.1088 213.285 19.5279L213.346 16.4429C213.368 16.0521 213.377 15.2089 213.377 13.9132V6.78694H210.878V22.366H213.717L218.252 15.4557L219.949 12.9569C220.998 11.4144 221.717 10.2832 222.108 9.56341C222.026 11.0236 221.984 13.2242 221.984 16.1653V22.366H224.514Z" fill="#366AF3"/>
</svg>
