<svg width="193" height="28" viewBox="0 0 193 28" fill="none" xmlns="http://www.w3.org/2000/svg">
<path fill-rule="evenodd" clip-rule="evenodd" d="M21.5417 22.3749L13.5484 10.8326L21.1713 0.462952H16.7272L10.1844 9.13516H6.88222V0.462952H1.97517L0 4.13552H2.96275V22.3749H6.88222V12.53H10.1844L17.0667 22.3749H21.5417ZM21.5108 9.99929C20.729 11.2749 20.3381 12.7666 20.3381 14.4743C20.3381 16.182 20.7187 17.6736 21.48 18.9493C22.2618 20.2043 23.3214 21.161 24.6587 21.8194C25.9755 22.4778 27.3849 22.807 28.8868 22.807C30.4094 22.807 31.8187 22.4778 33.1149 21.8194C34.4317 21.1405 35.4707 20.1837 36.232 18.9493C36.9932 17.6942 37.3739 16.2025 37.3739 14.4743C37.3739 12.7666 36.9932 11.2955 36.232 10.061C35.4707 8.80596 34.4317 7.85953 33.1149 7.22172C31.8599 6.60448 30.4505 6.29586 28.8868 6.29586C27.3643 6.29586 25.9447 6.61477 24.6279 7.25258C23.3111 7.89039 22.2721 8.80596 21.5108 9.99929ZM86.9073 6.78965H90.3947V8.91912C90.9296 8.09614 91.6395 7.46861 92.5242 7.03655C93.4295 6.5839 94.5919 6.35758 96.0116 6.35758C97.4724 6.35758 98.7686 6.68678 99.9002 7.34517C100.991 8.02413 101.834 8.99114 102.431 10.2462C103.048 11.4807 103.357 12.9003 103.357 14.5051C103.357 16.1305 103.048 17.5708 102.431 18.8258C101.834 20.0603 100.991 21.017 99.9002 21.696C99.3858 22.0457 98.7789 22.3029 98.0793 22.4675C97.4004 22.6527 96.7111 22.7453 96.0116 22.7453C94.7977 22.7453 93.8924 22.6527 93.2957 22.4675C92.0612 22.0972 91.1868 21.4799 90.6725 20.6158V27.8992H86.9073V6.78965ZM43.1142 6.78965H39.3799V22.3749H43.1142V15.8013H49.5026V22.3749H53.2061V6.78965H49.5026V12.7151H43.1142V6.78965ZM54.8417 6.78965H69.1925V9.7524H63.8843V22.3749H60.0883V9.7524H54.8417V6.78965ZM78.1734 18.1468C77.0212 14.4023 75.7456 10.6165 74.3465 6.78965H70.3962L76.3216 22.9305C76.1776 23.3419 76.0027 23.6814 75.797 23.9489C75.5912 24.2369 75.2929 24.4633 74.902 24.6279C74.4699 24.8336 73.9041 24.9365 73.2046 24.9365C72.6285 24.9365 72.145 24.8953 71.7541 24.813L73.0194 27.7758C73.0811 27.7964 73.4309 27.8066 74.0687 27.8066C75.2003 27.8066 76.1056 27.6215 76.7846 27.2511C77.4841 26.9014 78.0705 26.3767 78.5437 25.6772C78.9758 24.9776 79.4284 23.9798 79.9016 22.6836L85.642 6.78965H81.8768C80.4983 10.6577 79.2638 14.4434 78.1734 18.1468ZM24.1341 14.4434C24.1341 16.1511 24.5456 17.4576 25.3686 18.3629C26.1916 19.2476 27.3335 19.6899 28.7943 19.6899C30.2756 19.6899 31.4278 19.2476 32.2508 18.3629C33.0943 17.4576 33.5161 16.1511 33.5161 14.4434C33.5161 12.7769 33.1046 11.5218 32.2817 10.6783C31.4587 9.81412 30.2962 9.38205 28.7943 9.38205C27.3129 9.38205 26.1607 9.81412 25.3377 10.6783C24.5353 11.5218 24.1341 12.7769 24.1341 14.4434ZM91.8143 18.1777C91.0325 17.2519 90.621 16.0174 90.5799 14.4743C90.621 12.9312 91.0325 11.707 91.8143 10.8017C92.5962 9.89642 93.6969 9.44378 95.1166 9.44378C96.5362 9.44378 97.6267 9.90671 98.3879 10.8326C99.1698 11.7378 99.571 12.9518 99.5916 14.4743C99.571 16.0174 99.1698 17.2519 98.3879 18.1777C97.6267 19.1036 96.5362 19.5665 95.1166 19.5665C93.6969 19.5665 92.5962 19.1036 91.8143 18.1777Z" fill="#222222"/>
<path fill-rule="evenodd" clip-rule="evenodd" d="M172.509 5.06136C171.357 4.11493 170.286 3.44625 169.299 3.05533C168.311 2.66441 167.242 2.46896 166.09 2.46896C164.422 2.46896 162.972 2.8393 161.738 3.57999C160.504 4.32067 159.546 5.36998 158.867 6.7279C158.189 8.08583 157.849 9.6495 157.849 11.4189C157.849 13.1472 158.189 14.6903 158.867 16.0482C159.546 17.4267 160.493 18.4966 161.707 19.2579C162.921 19.9985 164.319 20.3689 165.904 20.3689C166.748 20.3689 167.56 20.2557 168.342 20.0294C169.062 19.8237 169.762 19.5048 170.44 19.0727C171.14 18.62 171.943 17.9822 172.848 17.1592L174.546 19.0418C173.578 20.0088 172.663 20.7598 171.799 21.2947C170.934 21.8297 170.029 22.2206 169.083 22.4675C168.136 22.7144 167.087 22.8378 165.936 22.8378C163.733 22.8378 161.81 22.3441 160.164 21.3565C158.518 20.3895 157.232 19.0418 156.306 17.3136C155.4 15.5647 154.948 13.5998 154.948 11.4189C154.948 9.77295 155.206 8.26071 155.72 6.88221C156.234 5.48314 156.986 4.26924 157.972 3.2405C160.009 1.08017 162.725 0 166.119 0C167.684 0 169.093 0.236608 170.348 0.709825C171.603 1.18304 172.879 1.97516 174.175 3.08619L172.509 5.06136ZM127.614 22.3749H124.744V12.3756H112.986V22.3749H110.146V0.462929H112.986V9.96841H124.744V0.462929H127.614V22.3749ZM150.197 0.462929V19.9985H152.821V26.9425H150.074V22.3749H133.594V26.9425H130.816V19.9985H132.637C133.913 18.2908 134.705 15.9145 135.013 12.8694C135.137 11.4498 135.209 10.0301 135.229 8.61048L135.291 0.462929H150.197ZM137.914 2.8393H147.358V19.9985H135.569C136.289 18.9081 136.845 17.4781 137.235 15.7087C137.626 13.9187 137.832 11.635 137.853 8.85738L137.914 2.8393ZM183.388 4.7836H185.734V11.6658H192.584V13.9496H185.734V20.8318H183.388V13.9496H176.536V11.6658H183.388V4.7836Z" fill="#FC7630"/>
</svg>
