<svg width="256" height="28" viewBox="0 0 256 28" fill="none" xmlns="http://www.w3.org/2000/svg">
<path fill-rule="evenodd" clip-rule="evenodd" d="M21.6632 22.0355L13.6248 10.4281L21.2907 0H16.8215L10.2419 8.7211H6.92102V0H1.98631L0 3.69328H2.97946V22.0355H6.92102V12.1351H10.2419L17.1629 22.0355H21.6632ZM21.6321 9.59011C20.8459 10.8729 20.4527 12.373 20.4527 14.0903C20.4527 15.8076 20.8355 17.3077 21.6011 18.5905C22.3873 19.8527 23.4529 20.8148 24.7978 21.4769C26.122 22.139 27.5393 22.47 29.0497 22.47C30.5808 22.47 31.9981 22.139 33.3016 21.4769C34.6258 20.7941 35.6707 19.832 36.4363 18.5905C37.2018 17.3284 37.5846 15.8283 37.5846 14.0903C37.5846 12.373 37.2018 10.8936 36.4363 9.65218C35.6707 8.39005 34.6258 7.43828 33.3016 6.79687C32.0395 6.17616 30.6222 5.8658 29.0497 5.8658C27.5186 5.8658 26.0909 6.1865 24.7667 6.82791C23.4425 7.46932 22.3977 8.39005 21.6321 9.59011ZM87.3973 6.36237H90.9044V8.50385C91.4423 7.67623 92.1562 7.04516 93.0458 6.61066C93.9562 6.15546 95.1253 5.92787 96.5529 5.92787C98.0219 5.92787 99.3255 6.25892 100.463 6.92102C101.56 7.60381 102.408 8.57627 103.008 9.8384C103.629 11.0798 103.939 12.5075 103.939 14.1214C103.939 15.7559 103.629 17.2043 103.008 18.4664C102.408 19.7078 101.56 20.6699 100.463 21.3527C99.9462 21.7045 99.3358 21.9631 98.6323 22.1286C97.9495 22.3149 97.2564 22.408 96.5529 22.408C95.3322 22.408 94.4218 22.3149 93.8217 22.1286C92.5803 21.7562 91.701 21.1355 91.1837 20.2665V27.591H87.3973V6.36237ZM43.3573 6.36237H39.6019V22.0355H43.3573V15.4249H49.7817V22.0355H53.506V6.36237H49.7817V12.3213H43.3573V6.36237ZM55.1509 6.36237H69.5827V9.34182H64.2445V22.0355H60.4271V9.34182H55.1509V6.36237ZM78.6141 17.7836C77.4555 14.0179 76.1726 10.2108 74.7657 6.36237H70.7931L76.752 22.5942C76.6071 23.008 76.4313 23.3494 76.2244 23.6184C76.0175 23.908 75.7174 24.1356 75.3243 24.3012C74.8898 24.5081 74.3208 24.6115 73.6173 24.6115C73.038 24.6115 72.5518 24.5701 72.1587 24.4874L73.4311 27.4668C73.4932 27.4875 73.8449 27.4979 74.4863 27.4979C75.6243 27.4979 76.5347 27.3116 77.2175 26.9392C77.921 26.5875 78.5107 26.0599 78.9866 25.3564C79.4211 24.6529 79.8763 23.6494 80.3521 22.3459L86.1248 6.36237H82.3384C80.9522 10.2522 79.7107 14.0593 78.6141 17.7836ZM24.2702 14.0593C24.2702 15.7766 24.684 17.0905 25.5116 18.0009C26.3392 18.8906 27.4876 19.3354 28.9566 19.3354C30.4463 19.3354 31.605 18.8906 32.4326 18.0009C33.2809 17.0905 33.7051 15.7766 33.7051 14.0593C33.7051 12.3833 33.2913 11.1212 32.4637 10.2729C31.636 9.40389 30.467 8.96939 28.9566 8.96939C27.4669 8.96939 26.3082 9.40389 25.4806 10.2729C24.6736 11.1212 24.2702 12.3833 24.2702 14.0593ZM92.332 17.8146C91.5458 16.8836 91.132 15.6421 91.0906 14.0903C91.132 12.5385 91.5458 11.3074 92.332 10.397C93.1183 9.48666 94.2252 9.03146 95.6529 9.03146C97.0805 9.03146 98.1771 9.497 98.9427 10.4281C99.7289 11.3385 100.132 12.5592 100.153 14.0903C100.132 15.6421 99.7289 16.8836 98.9427 17.8146C98.1771 18.7457 97.0805 19.2113 95.6529 19.2113C94.2252 19.2113 93.1183 18.7457 92.332 17.8146Z" fill="#222222"/>
<path fill-rule="evenodd" clip-rule="evenodd" d="M128.332 22.0355H125.446V11.9799H113.621V22.0355H110.766V0H113.621V9.55907H125.446V0H128.332V22.0355ZM148.28 14.2145C148.28 15.8283 147.939 17.256 147.256 18.4974C146.553 19.7596 145.58 20.7424 144.339 21.4458C143.097 22.1286 141.68 22.47 140.087 22.47C138.473 22.47 137.056 22.1183 135.835 21.4148C134.573 20.732 133.59 19.7699 132.886 18.5285C132.204 17.287 131.862 15.849 131.862 14.2145V14.0903C131.862 12.4971 132.214 11.0902 132.917 9.86943C133.6 8.628 134.562 7.66588 135.804 6.98309C137.045 6.27961 138.473 5.92787 140.087 5.92787C141.68 5.92787 143.097 6.26926 144.339 6.95205C145.58 7.63484 146.542 8.59696 147.225 9.8384C147.929 11.0798 148.28 12.4971 148.28 14.0903V14.2145ZM135.276 17.3491C134.821 16.4594 134.593 15.4145 134.593 14.2145V14.0903C134.593 12.9316 134.831 11.8971 135.307 10.9867C135.783 10.0763 136.435 9.37286 137.262 8.87628C138.09 8.4004 139.032 8.16246 140.087 8.16246C141.142 8.16246 142.083 8.41074 142.911 8.90732C143.759 9.40389 144.411 10.097 144.866 10.9867C145.321 11.8764 145.549 12.911 145.549 14.0903V14.2145C145.549 15.3938 145.321 16.4387 144.866 17.3491C144.432 18.2595 143.801 18.963 142.973 19.4595C142.145 19.9768 141.183 20.2354 140.087 20.2354C138.99 20.2354 138.028 19.9872 137.2 19.4906C136.373 18.994 135.731 18.2802 135.276 17.3491ZM167.553 14.2145C167.553 15.8283 167.242 17.256 166.622 18.4974C165.98 19.7389 165.079 20.701 163.921 21.3838C162.762 22.0666 161.438 22.408 159.949 22.408C157.156 22.408 155.19 21.5286 154.052 19.7699V27.622H151.383V6.36237H153.866V9.12457C155.086 7.01413 157.124 5.9589 159.98 5.9589C161.429 5.9589 162.731 6.28995 163.889 6.95205C165.049 7.65554 165.949 8.61765 166.59 9.8384C167.231 11.0591 167.553 12.4661 167.553 14.0593V14.2145ZM164.2 10.9867C164.636 11.8764 164.852 12.9006 164.852 14.0593V14.2145C164.852 15.3731 164.625 16.4077 164.17 17.3181C163.714 18.2078 163.084 18.9009 162.277 19.3975C161.449 19.9147 160.518 20.1734 159.483 20.1734C157.808 20.1734 156.463 19.6354 155.449 18.5595C154.435 17.4629 153.928 16.0146 153.928 14.2145V14.0593C153.928 12.8592 154.166 11.8247 154.642 10.9557C155.117 10.0867 155.79 9.40389 156.659 8.90732C157.507 8.43143 158.458 8.19349 159.515 8.19349C160.549 8.19349 161.469 8.44178 162.277 8.93835C163.104 9.43493 163.745 10.1177 164.2 10.9867ZM188.54 6.36237V22.0355H186.057V8.7211L180.904 22.0355H178.484L173.332 8.75214V22.0355H170.849V6.36237H174.79L179.694 19.025L184.566 6.36237H188.54ZM203.01 19.9251V22.0355H205.432V11.3281C205.432 9.63149 204.873 8.30729 203.757 7.35552C202.639 6.40375 201.076 5.92787 199.07 5.92787C196.277 5.92787 193.98 7.01413 192.179 9.18664L193.886 10.7384C194.734 9.80736 195.562 9.14526 196.369 8.75214C197.197 8.33833 198.118 8.13142 199.131 8.13142C200.352 8.13142 201.283 8.42109 201.924 9.00043C202.567 9.55907 202.887 10.397 202.887 11.5143V12.5696L198.791 12.8489C196.473 12.973 194.756 13.4489 193.639 14.2765C192.541 15.0835 191.993 16.2732 191.993 17.8457V18.0009C191.993 19.4285 192.48 20.5355 193.452 21.3217C194.446 22.1079 195.811 22.5011 197.549 22.5011C198.769 22.5011 199.846 22.2838 200.777 21.8493C201.708 21.3941 202.452 20.7527 203.01 19.9251ZM198.976 14.7421C197.363 14.8248 196.225 15.0938 195.562 15.549C194.9 16.0042 194.57 16.7284 194.57 17.7215V17.8767C194.57 18.6836 194.869 19.3044 195.469 19.7389C196.09 20.1734 196.958 20.3906 198.076 20.3906C198.966 20.3906 199.783 20.2148 200.528 19.863C201.274 19.5113 201.852 19.025 202.266 18.4043C202.68 17.7629 202.887 17.0387 202.887 16.2318V14.5559L198.976 14.7421ZM215.785 22.0355V8.53489H221.279V6.36237H207.624V8.53489H213.116V22.0355H215.785ZM237.75 6.36237V22.0355H235.205V15.7973C235.205 12.8385 235.246 10.6246 235.329 9.15561C234.935 9.87978 234.211 11.0178 233.156 12.5696L231.449 15.0835L226.888 22.0355H224.032V6.36237H226.546V13.5317C226.546 14.8352 226.535 15.6835 226.515 16.0766L226.452 19.1802C227.28 17.7526 228.449 15.9111 229.96 13.6558L234.863 6.36237H237.75ZM253.931 20.8562C254.862 20.0492 255.328 18.9837 255.328 17.6595C255.328 16.7077 255.047 15.9111 254.489 15.2697C253.931 14.6076 253.165 14.1627 252.193 13.9351C253.021 13.6869 253.662 13.2627 254.116 12.6627C254.593 12.0626 254.831 11.3074 254.831 10.397C254.831 9.1763 254.355 8.20384 253.403 7.47967C252.472 6.7348 251.251 6.36237 249.742 6.36237H241.983V22.0355H250.113C251.727 22.0355 253 21.6424 253.931 20.8562ZM244.621 13.0351H249.337C250.268 13.0351 250.972 12.8385 251.448 12.4454C251.944 12.0316 252.193 11.4523 252.193 10.7074C252.193 9.98323 251.944 9.42459 251.448 9.03146C250.972 8.63834 250.268 8.44178 249.337 8.44178H244.621V13.0351ZM251.82 15.6732C252.358 16.087 252.627 16.6767 252.627 17.4422C252.627 18.2491 252.358 18.8699 251.82 19.3044C251.282 19.7182 250.486 19.9251 249.431 19.9251H244.621V15.0214H249.431C250.486 15.0214 251.282 15.2387 251.82 15.6732Z" fill="#FC7630"/>
</svg>
