<svg width="459" height="28" viewBox="0 0 459 28" fill="none" xmlns="http://www.w3.org/2000/svg">
<path fill-rule="evenodd" clip-rule="evenodd" d="M21.6632 22.0355L13.6248 10.4281L21.2907 0H16.8215L10.2419 8.7211H6.92102V0H1.98631L0 3.69328H2.97946V22.0355H6.92102V12.1351H10.2419L17.1629 22.0355H21.6632ZM21.6321 9.59011C20.8459 10.8729 20.4527 12.373 20.4527 14.0903C20.4527 15.8076 20.8355 17.3077 21.6011 18.5905C22.3873 19.8527 23.4529 20.8148 24.7978 21.4769C26.122 22.139 27.5393 22.47 29.0497 22.47C30.5808 22.47 31.9981 22.139 33.3016 21.4769C34.6258 20.7941 35.6707 19.832 36.4363 18.5905C37.2018 17.3284 37.5846 15.8283 37.5846 14.0903C37.5846 12.373 37.2018 10.8936 36.4363 9.65218C35.6707 8.39005 34.6258 7.43828 33.3016 6.79687C32.0395 6.17616 30.6222 5.8658 29.0497 5.8658C27.5186 5.8658 26.0909 6.1865 24.7667 6.82791C23.4425 7.46932 22.3977 8.39005 21.6321 9.59011ZM87.3973 6.36237H90.9044V8.50385C91.4423 7.67623 92.1562 7.04516 93.0458 6.61066C93.9562 6.15546 95.1253 5.92787 96.5529 5.92787C98.0219 5.92787 99.3255 6.25892 100.463 6.92102C101.56 7.60381 102.408 8.57627 103.008 9.8384C103.629 11.0798 103.939 12.5075 103.939 14.1214C103.939 15.7559 103.629 17.2043 103.008 18.4664C102.408 19.7078 101.56 20.6699 100.463 21.3527C99.9462 21.7045 99.3358 21.9631 98.6323 22.1286C97.9495 22.3149 97.2564 22.408 96.5529 22.408C95.3322 22.408 94.4218 22.3149 93.8217 22.1286C92.5803 21.7562 91.701 21.1355 91.1837 20.2665V27.591H87.3973V6.36237ZM43.3573 6.36237H39.6019V22.0355H43.3573V15.4249H49.7817V22.0355H53.506V6.36237H49.7817V12.3213H43.3573V6.36237ZM55.1509 6.36237H69.5827V9.34182H64.2445V22.0355H60.4271V9.34182H55.1509V6.36237ZM78.6141 17.7836C77.4555 14.0179 76.1726 10.2108 74.7657 6.36237H70.7931L76.752 22.5942C76.6071 23.008 76.4313 23.3494 76.2244 23.6184C76.0175 23.908 75.7174 24.1356 75.3243 24.3012C74.8898 24.5081 74.3208 24.6115 73.6173 24.6115C73.038 24.6115 72.5518 24.5701 72.1587 24.4874L73.4311 27.4668C73.4932 27.4875 73.8449 27.4979 74.4863 27.4979C75.6243 27.4979 76.5347 27.3116 77.2175 26.9392C77.921 26.5875 78.5107 26.0599 78.9866 25.3564C79.4211 24.6529 79.8763 23.6494 80.3521 22.3459L86.1248 6.36237H82.3384C80.9522 10.2522 79.7107 14.0593 78.6141 17.7836ZM24.2702 14.0593C24.2702 15.7766 24.684 17.0905 25.5116 18.0009C26.3392 18.8906 27.4876 19.3354 28.9566 19.3354C30.4463 19.3354 31.605 18.8906 32.4326 18.0009C33.2809 17.0905 33.7051 15.7766 33.7051 14.0593C33.7051 12.3833 33.2913 11.1212 32.4637 10.2729C31.636 9.40389 30.467 8.96939 28.9566 8.96939C27.4669 8.96939 26.3082 9.40389 25.4806 10.2729C24.6736 11.1212 24.2702 12.3833 24.2702 14.0593ZM92.332 17.8146C91.5458 16.8836 91.132 15.6421 91.0906 14.0903C91.132 12.5385 91.5458 11.3074 92.332 10.397C93.1183 9.48666 94.2252 9.03146 95.6529 9.03146C97.0805 9.03146 98.1771 9.497 98.9427 10.4281C99.7289 11.3385 100.132 12.5592 100.153 14.0903C100.132 15.6421 99.7289 16.8836 98.9427 17.8146C98.1771 18.7457 97.0805 19.2113 95.6529 19.2113C94.2252 19.2113 93.1183 18.7457 92.332 17.8146Z" fill="#222222"/>
<path fill-rule="evenodd" clip-rule="evenodd" d="M124.237 0L118.029 14.0903L111.636 0H108.688L116.633 17.1008L116.54 17.3181C116.188 18.125 115.774 18.7147 115.298 19.0871C114.822 19.4389 114.243 19.6147 113.56 19.6147H111.295L112.35 22.0355H113.746C114.533 22.0355 115.267 21.8907 115.95 21.601C116.55 21.3114 117.067 20.8975 117.502 20.3596C117.957 19.8216 118.402 19.0768 118.836 18.125L127.03 0H124.237ZM124.523 19.863H125.982C126.561 19.2423 126.996 18.3319 127.285 17.1318C127.596 15.9111 127.771 14.2558 127.813 12.1661L127.875 6.36237H139.669V19.863H141.965V25.915H139.389V22.0355H127.068V25.915H124.523V19.863ZM130.265 8.53489H137V19.863H128.682C129.178 19.2423 129.551 18.3216 129.799 17.1008C130.047 15.8801 130.182 14.2869 130.203 12.3213L130.265 8.53489ZM159.624 14.2145C159.624 15.8283 159.282 17.256 158.601 18.4974C157.897 19.7596 156.925 20.7424 155.683 21.4458C154.441 22.1286 153.024 22.47 151.431 22.47C149.817 22.47 148.4 22.1183 147.179 21.4148C145.917 20.732 144.934 19.7699 144.23 18.5285C143.548 17.287 143.206 15.849 143.206 14.2145V14.0903C143.206 12.4971 143.558 11.0902 144.261 9.86943C144.944 8.628 145.906 7.66588 147.148 6.98309C148.389 6.27961 149.817 5.92787 151.431 5.92787C153.024 5.92787 154.441 6.26926 155.683 6.95205C156.925 7.63484 157.886 8.59696 158.569 9.8384C159.273 11.0798 159.624 12.4971 159.624 14.0903V14.2145ZM146.62 17.3491C146.165 16.4594 145.937 15.4145 145.937 14.2145V14.0903C145.937 12.9316 146.175 11.8971 146.651 10.9867C147.127 10.0763 147.779 9.37286 148.606 8.87628C149.434 8.4004 150.376 8.16246 151.431 8.16246C152.486 8.16246 153.427 8.41074 154.255 8.90732C155.103 9.40389 155.756 10.097 156.21 10.9867C156.666 11.8764 156.894 12.911 156.894 14.0903V14.2145C156.894 15.3938 156.666 16.4387 156.21 17.3491C155.776 18.2595 155.145 18.963 154.317 19.4595C153.489 19.9768 152.527 20.2354 151.431 20.2354C150.334 20.2354 149.372 19.9872 148.544 19.4906C147.717 18.994 147.075 18.2802 146.62 17.3491ZM169.99 22.47C168.375 22.47 166.958 22.139 165.737 21.4769C164.475 20.7941 163.502 19.8527 162.82 18.6526C162.137 17.4526 161.795 16.0663 161.795 14.4938V14.1214C161.795 12.4868 162.148 11.0591 162.852 9.8384C163.533 8.59696 164.496 7.63484 165.737 6.95205C166.979 6.26926 168.386 5.92787 169.958 5.92787C171.427 5.92787 172.689 6.15546 173.744 6.61066C174.8 7.04516 175.752 7.77968 176.6 8.81421L174.924 10.4591C174.2 9.6108 173.444 9.02112 172.658 8.69007C171.893 8.33833 170.982 8.16246 169.927 8.16246C168.769 8.16246 167.795 8.42109 167.01 8.93835C166.223 9.45562 165.613 10.1798 165.179 11.1109C164.743 12.042 164.527 13.0454 164.527 14.1214V14.4938C164.527 15.5283 164.743 16.4697 165.179 17.3181C165.613 18.2078 166.244 18.9112 167.071 19.4285C167.899 19.9458 168.872 20.2044 169.99 20.2044C170.651 20.2044 171.283 20.1216 171.882 19.9561C172.441 19.7906 172.959 19.5423 173.434 19.2113C173.91 18.8802 174.448 18.3733 175.048 17.6905L176.786 19.1492C175.876 20.3286 174.882 21.1769 173.807 21.6941C172.752 22.2114 171.479 22.47 169.99 22.47ZM186.229 22.0355V8.53489H191.723V6.36237H178.067V8.53489H183.559V22.0355H186.229ZM209.109 14.2145C209.109 15.8283 208.767 17.256 208.086 18.4974C207.382 19.7596 206.41 20.7424 205.169 21.4458C203.927 22.1286 202.509 22.47 200.916 22.47C199.302 22.47 197.885 22.1183 196.663 21.4148C195.402 20.732 194.419 19.7699 193.715 18.5285C193.033 17.287 192.691 15.849 192.691 14.2145V14.0903C192.691 12.4971 193.043 11.0902 193.746 9.86943C194.43 8.628 195.392 7.66588 196.634 6.98309C197.875 6.27961 199.302 5.92787 200.916 5.92787C202.509 5.92787 203.927 6.26926 205.169 6.95205C206.41 7.63484 207.371 8.59696 208.054 9.8384C208.758 11.0798 209.109 12.4971 209.109 14.0903V14.2145ZM196.105 17.3491C195.651 16.4594 195.422 15.4145 195.422 14.2145V14.0903C195.422 12.9316 195.66 11.8971 196.137 10.9867C196.612 10.0763 197.264 9.37286 198.091 8.87628C198.919 8.4004 199.861 8.16246 200.916 8.16246C201.971 8.16246 202.913 8.41074 203.741 8.90732C204.589 9.40389 205.241 10.097 205.695 10.9867C206.151 11.8764 206.379 12.911 206.379 14.0903V14.2145C206.379 15.3938 206.151 16.4387 205.695 17.3491C205.261 18.2595 204.629 18.963 203.802 19.4595C202.974 19.9768 202.013 20.2354 200.916 20.2354C199.819 20.2354 198.858 19.9872 198.03 19.4906C197.203 18.994 196.56 18.2802 196.105 17.3491ZM225.588 17.6595C225.588 18.9837 225.122 20.0492 224.191 20.8562C223.26 21.6424 221.989 22.0355 220.375 22.0355H212.243V6.36237H220.002C221.513 6.36237 222.734 6.7348 223.665 7.47967C224.616 8.20384 225.093 9.1763 225.093 10.397C225.093 11.3074 224.854 12.0626 224.378 12.6627C223.923 13.2627 223.282 13.6869 222.455 13.9351C223.426 14.1627 224.191 14.6076 224.751 15.2697C225.309 15.9111 225.588 16.7077 225.588 17.6595ZM219.599 13.0351H214.881V8.44178H219.599C220.53 8.44178 221.234 8.63834 221.709 9.03146C222.205 9.42459 222.455 9.98323 222.455 10.7074C222.455 11.4523 222.205 12.0316 221.709 12.4454C221.234 12.8385 220.53 13.0351 219.599 13.0351ZM222.889 17.4422C222.889 16.6767 222.619 16.087 222.082 15.6732C221.544 15.2387 220.748 15.0214 219.691 15.0214H214.881V19.9251H219.691C220.748 19.9251 221.544 19.7182 222.082 19.3044C222.619 18.8699 222.889 18.2491 222.889 17.4422ZM240.183 21.7562C241.278 21.2596 242.376 20.4423 243.473 19.3044L241.89 17.6595C241.02 18.5905 240.162 19.2526 239.313 19.6458C238.485 20.0389 237.534 20.2354 236.458 20.2354C235.32 20.2354 234.347 19.9975 233.541 19.5216C232.734 19.0457 232.102 18.3836 231.648 17.5353C231.234 16.7284 230.975 15.7663 230.872 14.649H243.347C243.39 14.0283 243.41 13.6455 243.41 13.5006C243.41 11.1419 242.769 9.2901 241.485 7.9452C240.224 6.60031 238.455 5.92787 236.179 5.92787C234.565 5.92787 233.148 6.27961 231.927 6.98309C230.726 7.68657 229.786 8.66938 229.102 9.93151C228.441 11.2143 228.11 12.642 228.11 14.2145C228.11 15.8697 228.45 17.3181 229.134 18.5595C229.817 19.8009 230.778 20.7631 232.019 21.4458C233.24 22.1286 234.679 22.47 236.335 22.47C237.803 22.47 239.086 22.2321 240.183 21.7562ZM240.865 12.6937C240.803 11.2661 240.347 10.1384 239.499 9.31079C238.672 8.46247 237.554 8.03831 236.148 8.03831C234.761 8.03831 233.603 8.46247 232.671 9.31079C231.74 10.1384 231.171 11.2661 230.964 12.6937H240.865ZM261.654 18.4974C262.275 17.256 262.585 15.8283 262.585 14.2145V14.0593C262.585 12.4661 262.264 11.0591 261.623 9.8384C260.982 8.61765 260.08 7.65554 258.922 6.95205C257.764 6.28995 256.459 5.9589 255.011 5.9589C252.157 5.9589 250.119 7.01413 248.898 9.12457V6.36237H246.415V27.622H249.084V19.7699C250.222 21.5286 252.188 22.408 254.981 22.408C256.47 22.408 257.795 22.0666 258.953 21.3838C260.112 20.701 261.011 19.7389 261.654 18.4974ZM259.884 14.0593C259.884 12.9006 259.666 11.8764 259.232 10.9867C258.778 10.1177 258.137 9.43493 257.309 8.93835C256.502 8.44178 255.58 8.19349 254.546 8.19349C253.491 8.19349 252.539 8.43143 251.691 8.90732C250.821 9.40389 250.149 10.0867 249.674 10.9557C249.197 11.8247 248.959 12.8592 248.959 14.0593V14.2145C248.959 16.0146 249.467 17.4629 250.481 18.5595C251.494 19.6354 252.839 20.1734 254.516 20.1734C255.55 20.1734 256.481 19.9147 257.309 19.3975C258.115 18.9009 258.746 18.2078 259.201 17.3181C259.657 16.4077 259.884 15.3731 259.884 14.2145V14.0593ZM275.253 22.0355H277.83V6.36237H270.847C269.15 6.36237 267.784 6.82791 266.75 7.75899C265.736 8.66938 265.229 9.89012 265.229 11.4212C265.229 12.6213 265.549 13.6351 266.192 14.4628C266.853 15.2697 267.825 15.8594 269.109 16.2318L264.485 22.0355H267.494L271.778 16.5422H275.253V22.0355ZM275.253 8.53489H271.187C270.132 8.53489 269.305 8.79352 268.704 9.31079C268.126 9.82805 267.836 10.5419 267.836 11.4523C267.836 12.3627 268.126 13.0868 268.704 13.6248C269.305 14.142 270.132 14.4007 271.187 14.4007H275.253V8.53489ZM302.375 18.4974C303.037 17.2353 303.369 15.8076 303.369 14.2145V14.0903C303.369 12.4971 303.027 11.0798 302.344 9.8384C301.662 8.59696 300.7 7.63484 299.458 6.95205C298.258 6.26926 296.872 5.92787 295.3 5.92787C293.872 5.92787 292.579 6.22788 291.42 6.82791C290.282 7.40725 289.361 8.22453 288.657 9.27975C287.933 10.335 287.498 11.5557 287.354 12.942H284.498V6.36237H281.829V22.0355H284.498V15.1145H287.292C287.415 16.6042 287.82 17.8974 288.502 18.994C289.205 20.0699 290.157 20.9182 291.358 21.539C292.516 22.1597 293.83 22.47 295.3 22.47C296.872 22.47 298.269 22.1286 299.49 21.4458C300.731 20.7424 301.692 19.7596 302.375 18.4974ZM289.992 14.2145C289.992 15.4145 290.22 16.4594 290.674 17.3491C291.11 18.2802 291.72 18.994 292.507 19.4906C293.312 19.9872 294.243 20.2354 295.3 20.2354C296.395 20.2354 297.338 19.9768 298.123 19.4595C298.93 18.963 299.551 18.2595 299.985 17.3491C300.441 16.4387 300.668 15.3938 300.668 14.2145V14.0903C300.668 12.911 300.451 11.8764 300.016 10.9867C299.582 10.097 298.961 9.40389 298.154 8.90732C297.347 8.41074 296.395 8.16246 295.3 8.16246C294.243 8.16246 293.323 8.41074 292.536 8.90732C291.731 9.40389 291.099 10.097 290.644 10.9867C290.209 11.8764 289.992 12.911 289.992 14.0903V14.2145ZM306.661 22.0355H326.709V25.915H329.223V19.894H326.958V6.36237H324.32V19.863H318.144V6.36237H315.506V19.863H309.329V6.36237H306.661V22.0355ZM345.935 6.36237V22.0355H343.39V15.7973C343.39 12.8385 343.432 10.6246 343.515 9.15561C343.122 9.87978 342.398 11.0178 341.343 12.5696L339.636 15.0835L335.073 22.0355H332.217V6.36237H334.731V13.5317C334.731 14.8352 334.722 15.6835 334.7 16.0766L334.639 19.1802C335.466 17.7526 336.636 15.9111 338.145 13.6558L343.05 6.36237H345.935ZM360.596 3.5381C361.444 2.85531 361.869 1.86216 361.869 0.558647H359.634C359.634 1.30351 359.406 1.88285 358.95 2.29666C358.496 2.68978 357.844 2.88634 356.996 2.88634C356.148 2.88634 355.495 2.67944 355.041 2.26562C354.585 1.83112 354.357 1.26213 354.357 0.558647H352.122C352.122 1.84147 352.547 2.83462 353.395 3.5381C354.243 4.22089 355.444 4.56229 356.996 4.56229C358.547 4.56229 359.748 4.22089 360.596 3.5381ZM363.886 6.36237V22.0355H361.341V15.7973C361.341 12.8385 361.381 10.6246 361.464 9.15561C361.071 9.87978 360.347 11.0178 359.292 12.5696L357.585 15.0835L353.024 22.0355H350.168V6.36237H352.682V13.5317C352.682 14.8352 352.671 15.6835 352.65 16.0766L352.588 19.1802C353.415 17.7526 354.585 15.9111 356.096 13.6558L360.999 6.36237H363.886ZM374.731 22.0355H387.55V25.915H390.094V19.863H387.798V6.36237H385.16V19.863H377.401V6.36237H374.731V22.0355ZM406.871 19.3044C405.774 20.4423 404.678 21.2596 403.581 21.7562C402.484 22.2321 401.201 22.47 399.733 22.47C398.077 22.47 396.638 22.1286 395.419 21.4458C394.178 20.7631 393.215 19.8009 392.532 18.5595C391.85 17.3181 391.508 15.8697 391.508 14.2145C391.508 12.642 391.839 11.2143 392.5 9.93151C393.184 8.66938 394.126 7.68657 395.325 6.98309C396.546 6.27961 397.963 5.92787 399.577 5.92787C401.853 5.92787 403.622 6.60031 404.885 7.9452C406.167 9.2901 406.808 11.1419 406.808 13.5006C406.808 13.6455 406.788 14.0283 406.747 14.649H394.27C394.373 15.7663 394.632 16.7284 395.046 17.5353C395.5 18.3836 396.132 19.0457 396.939 19.5216C397.747 19.9975 398.719 20.2354 399.856 20.2354C400.932 20.2354 401.885 20.0389 402.712 19.6458C403.56 19.2526 404.419 18.5905 405.288 17.6595L406.871 19.3044ZM402.897 9.31079C403.747 10.1384 404.202 11.2661 404.264 12.6937H394.362C394.569 11.2661 395.138 10.1384 396.069 9.31079C397.001 8.46247 398.16 8.03831 399.546 8.03831C400.954 8.03831 402.07 8.46247 402.897 9.31079ZM420.365 15.0835H412.512V22.0355H409.844V6.36237H412.512V12.911H420.365V6.36237H423.035V22.0355H420.365V15.0835ZM433.921 22.0355V8.53489H439.415V6.36237H425.759V8.53489H431.251V22.0355H433.921ZM458.306 14.2145C458.306 15.8283 457.996 17.256 457.375 18.4974C456.734 19.7389 455.834 20.701 454.674 21.3838C453.516 22.0666 452.191 22.408 450.702 22.408C447.909 22.408 445.943 21.5286 444.805 19.7699V27.622H442.136V6.36237H444.619V9.12457C445.84 7.01413 447.878 5.9589 450.734 5.9589C452.182 5.9589 453.484 6.28995 454.644 6.95205C455.803 7.65554 456.702 8.61765 457.344 9.8384C457.985 11.0591 458.306 12.4661 458.306 14.0593V14.2145ZM454.955 10.9867C455.389 11.8764 455.605 12.9006 455.605 14.0593V14.2145C455.605 15.3731 455.378 16.4077 454.923 17.3181C454.467 18.2078 453.837 18.9009 453.03 19.3975C452.202 19.9147 451.271 20.1734 450.237 20.1734C448.561 20.1734 447.216 19.6354 446.202 18.5595C445.188 17.4629 444.681 16.0146 444.681 14.2145V14.0593C444.681 12.8592 444.92 11.8247 445.395 10.9557C445.871 10.0867 446.544 9.40389 447.412 8.90732C448.26 8.43143 449.213 8.19349 450.268 8.19349C451.302 8.19349 452.223 8.44178 453.03 8.93835C453.857 9.43493 454.499 10.1177 454.955 10.9867Z" fill="#F03B36"/>
</svg>
