<svg width="200" height="29" viewBox="0 0 200 29" fill="none" xmlns="http://www.w3.org/2000/svg">
<path fill-rule="evenodd" clip-rule="evenodd" d="M21.3664 22.805L13.4382 11.3566L20.9991 1.07135H16.5911L10.1016 9.67299H6.82622V1.07135H1.9591L0 4.71404H2.93864V22.805H6.82622V13.0402H10.1016L16.9278 22.805H21.3664ZM21.3358 10.5301C20.5603 11.7953 20.1726 13.2749 20.1726 14.9687C20.1726 16.6625 20.5501 18.142 21.3052 19.4072C22.0807 20.6521 23.1316 21.601 24.4581 22.254C25.7642 22.9071 27.162 23.2336 28.6518 23.2336C30.1619 23.2336 31.5598 22.9071 32.8455 22.254C34.1515 21.5806 35.1821 20.6317 35.9371 19.4072C36.6922 18.1624 37.0697 16.6829 37.0697 14.9687C37.0697 13.2749 36.6922 11.8157 35.9371 10.5913C35.1821 9.34647 34.1515 8.40774 32.8455 7.77512C31.6006 7.1629 30.2027 6.85679 28.6518 6.85679C27.1416 6.85679 25.7335 7.17311 24.4275 7.80573C23.1214 8.43835 22.0909 9.34647 21.3358 10.5301ZM86.2001 7.34657H89.6591V9.45871C90.1897 8.64242 90.8938 8.02 91.7713 7.59145C92.6692 7.14249 93.8222 6.91802 95.2303 6.91802C96.6792 6.91802 97.9649 7.24453 99.0872 7.89756C100.169 8.571 101.006 9.53014 101.597 10.775C102.21 11.9994 102.516 13.4075 102.516 14.9993C102.516 16.6114 102.21 18.0399 101.597 19.2848C101.006 20.5092 100.169 21.4581 99.0872 22.1316C98.5771 22.4785 97.9751 22.7336 97.2812 22.8969C96.6078 23.0805 95.9241 23.1724 95.2303 23.1724C94.0263 23.1724 93.1283 23.0805 92.5365 22.8969C91.3121 22.5295 90.4448 21.9173 89.9346 21.0602V28.2844H86.2001V7.34657ZM42.7634 7.34657H39.0594V22.805H42.7634V16.2849H49.0998V22.805H52.7731V7.34657H49.0998V13.2238H42.7634V7.34657ZM54.3955 7.34657H68.6295V10.2852H63.3644V22.805H59.5993V10.2852H54.3955V7.34657ZM77.5372 18.6113C76.3944 14.8972 75.1292 11.1423 73.7415 7.34657H69.8233L75.7006 23.356C75.5577 23.7642 75.3843 24.1009 75.1802 24.3662C74.9761 24.6519 74.6802 24.8764 74.2925 25.0396C73.8639 25.2437 73.3027 25.3457 72.6089 25.3457C72.0375 25.3457 71.5579 25.3049 71.1702 25.2233L72.4252 28.1619C72.4865 28.1823 72.8334 28.1925 73.466 28.1925C74.5884 28.1925 75.4863 28.0089 76.1598 27.6415C76.8536 27.2946 77.4352 26.7742 77.9046 26.0804C78.3331 25.3865 78.7821 24.3968 79.2514 23.1111L84.9451 7.34657H81.2105C79.8432 11.1831 78.6188 14.938 77.5372 18.6113ZM23.9377 14.938C23.9377 16.6318 24.3458 17.9277 25.1621 18.8256C25.9784 19.7031 27.111 20.1419 28.5599 20.1419C30.0293 20.1419 31.1721 19.7031 31.9883 18.8256C32.825 17.9277 33.2434 16.6318 33.2434 14.938C33.2434 13.2851 32.8352 12.0402 32.019 11.2035C31.2027 10.3464 30.0497 9.91787 28.5599 9.91787C27.0906 9.91787 25.9478 10.3464 25.1315 11.2035C24.3356 12.0402 23.9377 13.2851 23.9377 14.938ZM91.0672 18.642C90.2917 17.7236 89.8836 16.4992 89.8428 14.9687C89.8836 13.4381 90.2917 12.2239 91.0672 11.326C91.8427 10.4281 92.9345 9.9791 94.3426 9.9791C95.7507 9.9791 96.8323 10.4383 97.5873 11.3566C98.3628 12.2545 98.7607 13.4585 98.7811 14.9687C98.7607 16.4992 98.3628 17.7236 97.5873 18.642C96.8323 19.5603 95.7507 20.0194 94.3426 20.0194C92.9345 20.0194 91.8427 19.5603 91.0672 18.642Z" fill="#222222"/>
<path fill-rule="evenodd" clip-rule="evenodd" d="M131.259 16.7135C132.116 15.3054 132.545 13.6626 132.545 11.7852V11.6933C132.545 9.85668 132.106 8.23431 131.228 6.82621C130.371 5.41811 129.137 4.32633 127.524 3.55085C125.871 2.77538 123.953 2.38764 121.77 2.38764H121.647V0H118.923V2.38764H118.831C116.627 2.38764 114.699 2.77538 113.046 3.55085C111.413 4.32633 110.168 5.41811 109.311 6.82621C108.454 8.23431 108.025 9.85668 108.025 11.6933V11.7852C108.025 13.6626 108.454 15.3156 109.311 16.7441C110.168 18.1522 111.413 19.244 113.046 20.0195C114.699 20.7949 116.627 21.1827 118.831 21.1827H118.923V23.8764H121.647V21.1827H121.77C123.994 21.1827 125.912 20.7949 127.524 20.0195C129.137 19.244 130.381 18.142 131.259 16.7135ZM118.831 4.71407H118.984V18.8563H118.831C117.158 18.8563 115.729 18.5706 114.545 17.9992C113.362 17.4073 112.454 16.5707 111.821 15.4891C111.209 14.4075 110.903 13.1729 110.903 11.7852V11.6933C110.903 10.2852 111.209 9.0608 111.821 8.02003C112.454 6.95886 113.352 6.14257 114.515 5.57117C115.678 4.99977 117.117 4.71407 118.831 4.71407ZM129.698 11.6933C129.698 10.3056 129.392 9.08121 128.78 8.02003C128.167 6.93845 127.269 6.12216 126.086 5.57117C124.923 4.99977 123.484 4.71407 121.77 4.71407H121.617V18.8563H121.77C123.423 18.8563 124.861 18.5604 126.086 17.9685C127.249 17.3971 128.137 16.5707 128.749 15.4891C129.382 14.4075 129.698 13.1729 129.698 11.7852V11.6933ZM150.083 19.3154C150.757 18.091 151.093 16.6829 151.093 15.0911V14.9687C151.093 13.3973 150.746 11.9994 150.053 10.775C149.379 9.55057 148.43 8.60164 147.206 7.9282C145.981 7.25476 144.584 6.91804 143.012 6.91804C141.42 6.91804 140.012 7.26497 138.788 7.95881C137.563 8.63225 136.614 9.58118 135.941 10.8056C135.247 12.0096 134.9 13.3973 134.9 14.9687V15.0911C134.9 16.7033 135.237 18.1216 135.91 19.346C136.604 20.5705 137.574 21.5194 138.818 22.1928C140.023 22.8867 141.42 23.2336 143.012 23.2336C144.584 23.2336 145.981 22.8969 147.206 22.2234C148.43 21.5296 149.389 20.5603 150.083 19.3154ZM137.594 15.0911C137.594 16.2747 137.819 17.3053 138.267 18.1828C138.716 19.1011 139.349 19.8052 140.165 20.295C140.982 20.7847 141.931 21.0296 143.012 21.0296C144.094 21.0296 145.043 20.7745 145.859 20.2644C146.675 19.7746 147.298 19.0807 147.726 18.1828C148.175 17.2849 148.4 16.2543 148.4 15.0911V14.9687C148.4 13.8055 148.175 12.7851 147.726 11.9076C147.277 11.0301 146.634 10.3465 145.798 9.85668C144.981 9.36691 144.053 9.12202 143.012 9.12202C141.971 9.12202 141.043 9.3567 140.227 9.82607C139.41 10.3158 138.767 11.0097 138.298 11.9076C137.829 12.8055 137.594 13.8259 137.594 14.9687V15.0911ZM156.816 15.9788H159.48L164.897 22.8051H167.898L161.623 14.785L167.408 7.34659H164.591L159.509 13.8361H156.816V7.34659H154.183V22.8051H156.816V15.9788ZM182.975 7.34659L177.342 23.1418C176.873 24.4682 176.424 25.4886 175.996 26.2029C175.568 26.9579 175.058 27.4987 174.465 27.8252C173.873 28.1517 173.108 28.315 172.17 28.315H171.005L170.211 26.1416H171.802C172.312 26.1416 172.751 26.06 173.119 25.8967C173.751 25.611 174.271 24.907 174.679 23.7846L168.802 7.34659H171.588L173.454 12.7647C174.148 14.7238 174.598 16.0299 174.802 16.6829L175.934 20.295C176.322 19.0705 176.648 18.0808 176.914 17.3257L177.189 16.5604L178.445 12.7647L180.312 7.34659H182.975ZM188.106 22.2541C189.31 22.9071 190.708 23.2336 192.3 23.2336C193.769 23.2336 195.024 22.9785 196.065 22.4683C197.127 21.9582 198.105 21.1215 199.004 19.9582L197.289 18.5195C196.698 19.193 196.167 19.693 195.698 20.0195C195.228 20.346 194.718 20.5909 194.168 20.7541C193.576 20.9174 192.952 20.999 192.3 20.999C191.198 20.999 190.239 20.7439 189.423 20.2337C188.607 19.7236 187.984 19.0297 187.555 18.1522C187.127 17.3155 186.912 16.387 186.912 15.3666V14.9993C186.912 13.9381 187.127 12.9484 187.555 12.03C187.984 11.1117 188.587 10.3975 189.361 9.88729C190.137 9.37711 191.096 9.12202 192.238 9.12202C193.28 9.12202 194.177 9.29548 194.933 9.64241C195.707 9.96892 196.453 10.5505 197.167 11.3872L198.82 9.76485C197.983 8.74449 197.045 8.02003 196.004 7.59148C194.964 7.14252 193.718 6.91804 192.269 6.91804C190.718 6.91804 189.33 7.25476 188.106 7.9282C186.881 8.60164 185.934 9.55057 185.26 10.775C184.565 11.979 184.219 13.3871 184.219 14.9993V15.3666C184.219 16.9176 184.556 18.2849 185.229 19.4685C185.903 20.6521 186.861 21.5806 188.106 22.2541Z" fill="#26AD50"/>
</svg>
