<svg width="207" height="28" viewBox="0 0 207 28" fill="none" xmlns="http://www.w3.org/2000/svg">
<path fill-rule="evenodd" clip-rule="evenodd" d="M21.672 22.0445L13.6303 10.4323L21.2994 0H16.8284L10.246 8.72466H6.92384V0H1.98712L0 3.69478H2.98067V22.0445H6.92384V12.14H10.246L17.1699 22.0445H21.672ZM21.6409 9.59402C20.8544 10.8774 20.4611 12.378 20.4611 14.0961C20.4611 15.8141 20.844 17.3148 21.6099 18.5981C22.3964 19.8608 23.4624 20.8233 24.8079 21.4856C26.1326 22.148 27.5505 22.4792 29.0615 22.4792C30.5933 22.4792 32.0112 22.148 33.3152 21.4856C34.6399 20.8026 35.6852 19.8401 36.4511 18.5981C37.217 17.3355 37.5999 15.8348 37.5999 14.0961C37.5999 12.378 37.217 10.8981 36.4511 9.65611C35.6852 8.39347 34.6399 7.44131 33.3152 6.79964C32.0526 6.17867 30.6347 5.86818 29.0615 5.86818C27.5298 5.86818 26.1016 6.18902 24.7768 6.83069C23.4521 7.47236 22.4068 8.39347 21.6409 9.59402ZM87.4329 6.36496H90.9414V8.50731C91.4796 7.67935 92.1937 7.04803 93.0837 6.61335C93.9945 6.15797 95.164 5.93028 96.5922 5.93028C98.0619 5.93028 99.3659 6.26147 100.504 6.92384C101.601 7.60691 102.45 8.57976 103.05 9.8424C103.671 11.0843 103.982 12.5126 103.982 14.1271C103.982 15.7623 103.671 17.2113 103.05 18.4739C102.45 19.7159 101.601 20.6784 100.504 21.3614C99.9869 21.7133 99.3763 21.9721 98.6725 22.1376C97.9894 22.3239 97.296 22.4171 96.5922 22.4171C95.371 22.4171 94.4602 22.3239 93.86 22.1376C92.618 21.7651 91.7383 21.1441 91.2208 20.2747V27.6022H87.4329V6.36496ZM43.3749 6.36496H39.6181V22.0445H43.3749V15.4312H49.802V22.0445H53.5278V6.36496H49.802V12.3263H43.3749V6.36496ZM55.1734 6.36496H69.611V9.34563H64.2706V22.0445H60.4517V9.34563H55.1734V6.36496ZM78.6461 17.7908C77.487 14.0236 76.2037 10.215 74.7961 6.36496H70.8219L76.7832 22.6034C76.6383 23.0174 76.4624 23.3589 76.2554 23.628C76.0484 23.9178 75.7483 24.1455 75.355 24.311C74.9203 24.518 74.3511 24.6215 73.6473 24.6215C73.0677 24.6215 72.5813 24.5801 72.188 24.4973L73.461 27.478C73.5231 27.4987 73.875 27.5091 74.5167 27.5091C75.6551 27.5091 76.5659 27.3228 77.249 26.9502C77.9527 26.5983 78.5426 26.0705 79.0187 25.3667C79.4534 24.6629 79.9088 23.659 80.3849 22.355L86.1599 6.36496H82.372C80.9851 10.2564 79.7432 14.065 78.6461 17.7908ZM24.2801 14.065C24.2801 15.783 24.694 17.0974 25.522 18.0082C26.35 18.8982 27.4988 19.3433 28.9684 19.3433C30.4587 19.3433 31.6179 18.8982 32.4458 18.0082C33.2945 17.0974 33.7188 15.783 33.7188 14.065C33.7188 12.3884 33.3048 11.1257 32.4769 10.2771C31.6489 9.40772 30.4794 8.97304 28.9684 8.97304C27.4781 8.97304 26.3189 9.40772 25.4909 10.2771C24.6837 11.1257 24.2801 12.3884 24.2801 14.065ZM92.3696 17.8219C91.5831 16.8904 91.1691 15.6485 91.1277 14.0961C91.1691 12.5436 91.5831 11.312 92.3696 10.4013C93.1562 9.49052 94.2636 9.03514 95.6918 9.03514C97.1201 9.03514 98.2171 9.50087 98.983 10.4323C99.7695 11.3431 100.173 12.5643 100.194 14.0961C100.173 15.6485 99.7695 16.8904 98.983 17.8219C98.2171 18.7534 97.1201 19.2191 95.6918 19.2191C94.2636 19.2191 93.1562 18.7534 92.3696 17.8219Z" fill="#222222"/>
<path fill-rule="evenodd" clip-rule="evenodd" d="M138.104 22.0445H110.812V0H113.669V19.6538H123.015V0H125.871V19.6538H135.248V0H138.104V22.0445ZM148.139 15.1207H145.438V22.0445H142.768V6.36496H145.438V12.9473H148.17L153.324 6.36496H156.18L150.313 13.9098L156.677 22.0445H153.635L148.139 15.1207ZM172.553 18.505C173.235 17.263 173.577 15.8348 173.577 14.2203V14.0961C173.577 12.5022 173.226 11.0843 172.521 9.8424C171.838 8.60046 170.875 7.63795 169.633 6.95489C168.391 6.27182 166.973 5.93028 165.38 5.93028C163.765 5.93028 162.337 6.28217 161.095 6.98593C159.853 7.669 158.891 8.63151 158.208 9.87345C157.504 11.0947 157.152 12.5022 157.152 14.0961V14.2203C157.152 15.8555 157.494 17.2941 158.176 18.536C158.88 19.778 159.864 20.7405 161.126 21.4235C162.348 22.1273 163.765 22.4792 165.38 22.4792C166.973 22.4792 168.391 22.1376 169.633 21.4546C170.875 20.7508 171.849 19.7676 172.553 18.505ZM159.884 14.2203C159.884 15.4208 160.111 16.4661 160.568 17.3562C161.022 18.2876 161.664 19.0017 162.492 19.4985C163.32 19.9953 164.283 20.2437 165.38 20.2437C166.476 20.2437 167.439 19.9849 168.267 19.4675C169.095 18.9707 169.727 18.2669 170.161 17.3562C170.616 16.4454 170.845 15.4001 170.845 14.2203V14.0961C170.845 12.9162 170.616 11.8813 170.161 10.9912C169.707 10.1011 169.054 9.40772 168.206 8.91095C167.378 8.41417 166.436 8.16578 165.38 8.16578C164.325 8.16578 163.382 8.40382 162.555 8.8799C161.727 9.37668 161.074 10.0804 160.599 10.9912C160.122 11.902 159.884 12.9369 159.884 14.0961V14.2203ZM175.487 19.8711C175.135 19.8711 174.805 19.8297 174.494 19.7469V22.0135L175.115 22.1376L175.736 22.1997C176.915 22.1997 177.795 21.9617 178.375 21.4856C178.974 21.0095 179.388 20.2333 179.617 19.157C179.824 18.1634 179.957 16.6006 180.02 14.4686L180.175 8.53836H186.727V22.0445H189.397V6.36496H177.784L177.599 14.2824C177.557 15.6899 177.484 16.8387 177.381 17.7287C177.278 18.5153 177.081 19.0742 176.791 19.4054C176.501 19.7159 176.067 19.8711 175.487 19.8711ZM203.672 22.0445V19.9332C203.112 20.7612 202.367 21.4028 201.436 21.8582C200.504 22.2929 199.429 22.5102 198.207 22.5102C196.468 22.5102 195.102 22.1169 194.108 21.3304C193.136 20.5438 192.65 19.4364 192.65 18.0082V17.8529C192.65 16.2798 193.199 15.0896 194.295 14.2824C195.413 13.4544 197.131 12.9783 199.449 12.8541L203.548 12.5747V11.519C203.548 10.4013 203.227 9.56297 202.585 9.00409C201.944 8.42452 201.012 8.13473 199.791 8.13473C198.776 8.13473 197.856 8.34172 197.028 8.7557C196.22 9.14899 195.392 9.81136 194.544 10.7428L192.836 9.19038C194.636 7.01698 196.934 5.93028 199.728 5.93028C201.737 5.93028 203.299 6.40636 204.417 7.35852C205.535 8.31067 206.093 9.63541 206.093 11.3327V22.0445H203.672ZM196.22 15.5553C196.882 15.1 198.02 14.8309 199.636 14.7481L203.548 14.5618V16.2384C203.548 17.0457 203.341 17.7701 202.927 18.4118C202.513 19.0328 201.933 19.5192 201.188 19.8711C200.443 20.223 199.625 20.3989 198.736 20.3989C197.617 20.3989 196.747 20.1816 196.126 19.7469C195.527 19.3122 195.226 18.6913 195.226 17.884V17.7287C195.226 16.7352 195.557 16.0107 196.22 15.5553Z" fill="#F03B36"/>
</svg>
