<svg width="220" height="28" viewBox="0 0 220 28" fill="none" xmlns="http://www.w3.org/2000/svg">
<path fill-rule="evenodd" clip-rule="evenodd" d="M21.672 22.0445L13.6303 10.4323L21.2994 0H16.8284L10.246 8.72466H6.92384V0H1.98712L0 3.69478H2.98067V22.0445H6.92384V12.14H10.246L17.1699 22.0445H21.672ZM21.6409 9.59402C20.8544 10.8774 20.4611 12.378 20.4611 14.0961C20.4611 15.8141 20.844 17.3148 21.6099 18.5981C22.3964 19.8608 23.4624 20.8233 24.8079 21.4856C26.1326 22.148 27.5505 22.4792 29.0615 22.4792C30.5933 22.4792 32.0112 22.148 33.3152 21.4856C34.6399 20.8026 35.6852 19.8401 36.4511 18.5981C37.217 17.3355 37.5999 15.8348 37.5999 14.0961C37.5999 12.378 37.217 10.8981 36.4511 9.65611C35.6852 8.39347 34.6399 7.44131 33.3152 6.79964C32.0526 6.17867 30.6347 5.86818 29.0615 5.86818C27.5298 5.86818 26.1016 6.18902 24.7768 6.83069C23.4521 7.47236 22.4068 8.39347 21.6409 9.59402ZM87.4329 6.36496H90.9414V8.50731C91.4796 7.67935 92.1937 7.04803 93.0837 6.61335C93.9945 6.15797 95.164 5.93028 96.5922 5.93028C98.0619 5.93028 99.3659 6.26147 100.504 6.92384C101.601 7.60691 102.45 8.57976 103.05 9.8424C103.671 11.0843 103.982 12.5126 103.982 14.1271C103.982 15.7623 103.671 17.2113 103.05 18.4739C102.45 19.7159 101.601 20.6784 100.504 21.3614C99.9869 21.7133 99.3763 21.9721 98.6725 22.1376C97.9894 22.3239 97.296 22.4171 96.5922 22.4171C95.371 22.4171 94.4602 22.3239 93.86 22.1376C92.618 21.7651 91.7383 21.1441 91.2208 20.2747V27.6022H87.4329V6.36496ZM43.3749 6.36496H39.6181V22.0445H43.3749V15.4312H49.802V22.0445H53.5278V6.36496H49.802V12.3263H43.3749V6.36496ZM55.1734 6.36496H69.611V9.34563H64.2706V22.0445H60.4517V9.34563H55.1734V6.36496ZM78.6461 17.7908C77.487 14.0236 76.2037 10.215 74.7961 6.36496H70.8219L76.7832 22.6034C76.6383 23.0174 76.4624 23.3589 76.2554 23.628C76.0484 23.9178 75.7483 24.1455 75.355 24.311C74.9203 24.518 74.3511 24.6215 73.6473 24.6215C73.0677 24.6215 72.5813 24.5801 72.188 24.4973L73.461 27.478C73.5231 27.4987 73.875 27.5091 74.5167 27.5091C75.6551 27.5091 76.5659 27.3228 77.249 26.9502C77.9527 26.5983 78.5426 26.0705 79.0187 25.3667C79.4534 24.6629 79.9088 23.659 80.3849 22.355L86.1599 6.36496H82.372C80.9851 10.2564 79.7432 14.065 78.6461 17.7908ZM24.2801 14.065C24.2801 15.783 24.694 17.0974 25.522 18.0082C26.35 18.8982 27.4988 19.3433 28.9684 19.3433C30.4587 19.3433 31.6179 18.8982 32.4458 18.0082C33.2945 17.0974 33.7188 15.783 33.7188 14.065C33.7188 12.3884 33.3048 11.1257 32.4769 10.2771C31.6489 9.40772 30.4794 8.97304 28.9684 8.97304C27.4781 8.97304 26.3189 9.40772 25.4909 10.2771C24.6837 11.1257 24.2801 12.3884 24.2801 14.065ZM92.3696 17.8219C91.5831 16.8904 91.1691 15.6485 91.1277 14.0961C91.1691 12.5436 91.5831 11.312 92.3696 10.4013C93.1562 9.49052 94.2636 9.03514 95.6918 9.03514C97.1201 9.03514 98.2171 9.50087 98.983 10.4323C99.7695 11.3431 100.173 12.5643 100.194 14.0961C100.173 15.6485 99.7695 16.8904 98.983 17.8219C98.2171 18.7534 97.1201 19.2191 95.6918 19.2191C94.2636 19.2191 93.1562 18.7534 92.3696 17.8219Z" fill="#222222"/>
<path fill-rule="evenodd" clip-rule="evenodd" d="M128.479 19.6538V0H113.483L113.42 8.19683C113.4 9.62506 113.327 11.0533 113.203 12.4815C112.893 15.545 112.096 17.9357 110.812 19.6538H108.98V26.6397H111.775V22.0445H128.355V26.6397H131.118V19.6538H128.479ZM116.122 2.39074H125.623V19.6538H113.762C114.486 18.5567 115.045 17.1181 115.439 15.338C115.832 13.5372 116.039 11.2396 116.06 8.44522L116.122 2.39074ZM148.092 6.36496V22.0445H145.546V15.8037C145.546 12.8438 145.588 10.629 145.67 9.15934C145.277 9.8838 144.553 11.0223 143.497 12.5747L141.789 15.0896L137.225 22.0445H134.369V6.36496H136.884V13.5372C136.884 14.8412 136.873 15.6899 136.853 16.0832L136.791 19.188C137.619 17.7598 138.788 15.9176 140.299 13.6614L145.205 6.36496H148.092ZM162.572 19.9332V22.0445H164.994V11.3327C164.994 9.63541 164.435 8.31067 163.316 7.35852C162.2 6.40636 160.637 5.93028 158.629 5.93028C155.835 5.93028 153.537 7.01698 151.736 9.19038L153.444 10.7428C154.292 9.81136 155.12 9.14899 155.928 8.7557C156.755 8.34172 157.676 8.13473 158.691 8.13473C159.912 8.13473 160.844 8.42452 161.485 9.00409C162.126 9.56297 162.448 10.4013 162.448 11.519V12.5747L158.349 12.8541C156.031 12.9783 154.313 13.4544 153.195 14.2824C152.098 15.0896 151.55 16.2798 151.55 17.8529V18.0082C151.55 19.4364 152.036 20.5438 153.009 21.3304C154.003 22.1169 155.369 22.5102 157.107 22.5102C158.328 22.5102 159.406 22.2929 160.337 21.8582C161.268 21.4028 162.013 20.7612 162.572 19.9332ZM158.535 14.7481C156.922 14.8309 155.783 15.1 155.12 15.5553C154.458 16.0107 154.127 16.7352 154.127 17.7287V17.884C154.127 18.6913 154.427 19.3122 155.027 19.7469C155.648 20.1816 156.517 20.3989 157.635 20.3989C158.526 20.3989 159.343 20.223 160.088 19.8711C160.833 19.5192 161.413 19.0328 161.827 18.4118C162.241 17.7701 162.448 17.0457 162.448 16.2384V14.5618L158.535 14.7481ZM168.8 19.8711H167.342V25.9256H169.887V22.0445H182.214V25.9256H184.79V19.8711H182.493V6.36496H170.694L170.632 12.171C170.591 14.2617 170.415 15.9176 170.105 17.1388C169.815 18.3394 169.38 19.2501 168.8 19.8711ZM179.822 8.53836H173.086L173.023 12.3263C173.003 14.2927 172.868 15.8865 172.62 17.1078C172.371 18.329 171.999 19.2501 171.502 19.8711H179.822V8.53836ZM201.433 18.505C202.115 17.263 202.456 15.8348 202.456 14.2203V14.0961C202.456 12.5022 202.105 11.0843 201.401 9.8424C200.717 8.60046 199.755 7.63795 198.513 6.95489C197.271 6.27182 195.853 5.93028 194.26 5.93028C192.645 5.93028 191.216 6.28217 189.974 6.98593C188.732 7.669 187.771 8.63151 187.087 9.87345C186.383 11.0947 186.032 12.5022 186.032 14.0961V14.2203C186.032 15.8555 186.374 17.2941 187.056 18.536C187.76 19.778 188.743 20.7405 190.006 21.4235C191.227 22.1273 192.645 22.4792 194.26 22.4792C195.853 22.4792 197.271 22.1376 198.513 21.4546C199.755 20.7508 200.728 19.7676 201.433 18.505ZM188.764 14.2203C188.764 15.4208 188.991 16.4661 189.447 17.3562C189.902 18.2876 190.544 19.0017 191.372 19.4985C192.199 19.9953 193.162 20.2437 194.26 20.2437C195.356 20.2437 196.319 19.9849 197.147 19.4675C197.975 18.9707 198.607 18.2669 199.041 17.3562C199.496 16.4454 199.725 15.4001 199.725 14.2203V14.0961C199.725 12.9162 199.496 11.8813 199.041 10.9912C198.586 10.1011 197.934 9.40772 197.086 8.91095C196.258 8.41417 195.315 8.16578 194.26 8.16578C193.205 8.16578 192.262 8.40382 191.434 8.8799C190.606 9.37668 189.954 10.0804 189.479 10.9912C189.002 11.902 188.764 12.9369 188.764 14.0961V14.2203ZM208.262 15.1207H210.963L216.458 22.0445H219.502L213.137 13.9098L219.005 6.36496H216.148L210.993 12.9473H208.262V6.36496H205.591V22.0445H208.262V15.1207Z" fill="#00BEA2"/>
</svg>
